<?xml version="1.0" encoding="utf-8"?>
<!-- Generator: Adobe Illustrator 24.0.3, SVG Export Plug-In . SVG Version: 6.00 Build 0)  -->
<svg version="1.1" id="Layer_1" xmlns="http://www.w3.org/2000/svg" xmlns:xlink="http://www.w3.org/1999/xlink" x="0px" y="0px"
	 viewBox="0 0 2000 2000" enable-background="new 0 0 2000 2000" xml:space="preserve">
<path fill="#EBF5FF" d="M346.726,907.968c257.11-78.521,712.155,67.738,1282.986-10.992
	c292.074-40.281,266.094,492.97-19.035,740.735c-401.899,349.229-985.743,383.969-1282.987,10.99
	C145.546,1420.146-116.726,1049.51,346.726,907.968z"/>
<path fill="#EBF5FF" d="M346.726,907.968c257.11-78.521,712.155,67.738,1282.986-10.992
	c292.074-40.281,266.094,492.97-19.035,740.735c-401.899,349.229-985.743,383.969-1282.987,10.99
	C145.546,1420.146-116.726,1049.51,346.726,907.968z"/>
<path fill="#EBF5FF" d="M376.805,1703.979c8.378-1.877,15.989-2.85,22.821-2.978c10.168-0.192,20.453,2.716,30.854,8.723
	c8.891,5.133,13.549,10.826,13.975,17.077c0.426,6.252-3.145,11.561-10.713,15.93c-3.132,1.809-6.685,3.165-10.663,4.04
	C407.108,1733.358,391.652,1719.112,376.805,1703.979z"/>
<g>
	<g>
		<path fill="#EBF5FF" d="M423.085,1746.762c10.603,8.933,21.43,17.499,32.456,25.69c-2.769,0.857-5.617,1.507-8.529,2.01
			c-9.314,1.611-18.417,2.389-27.308,2.335c-8.891-0.056-24.353-0.437-46.39-1.148c-6.146-0.164-11.301-0.164-15.462,0
			c-4.162,0.163-7.636,0.505-10.427,1.024c-2.791,0.52-5.368,1.161-7.733,1.924c-2.364,0.765-6.381,2.185-12.056,4.259
			c-11.633,4.642-22.178,4.232-31.637-1.227c-4.916-2.838-7.446-6.158-7.588-9.953c-0.142-3.797,2.955-7.523,9.292-11.181
			c7.945-4.585,16.055-7.848,24.33-9.787c8.275-1.937,16.646-3.004,25.109-3.193c8.465-0.192,19.175-0.041,32.131,0.45
			c11.35,0.437,19.72,0.655,25.111,0.655s10.662-0.424,15.818-1.271L423.085,1746.762L423.085,1746.762z"/>
		<path fill="#EBF5FF" d="M351.078,1676.436c8.375,9.474,16.953,18.655,25.724,27.539c-4.109,0.829-8.389,1.918-12.858,3.207
			c-13.901,4.313-25.347,3.879-34.331-1.311c-5.297-3.058-7.897-6.717-7.801-10.974c0.094-4.26,2.316-7.646,6.665-10.157
			C334.608,1681.201,342.134,1678.404,351.078,1676.436L351.078,1676.436z"/>
		<path fill="#D8EBFF" d="M351.078,1676.436c4.138-1.037,8.6-1.834,13.363-2.465c14.989-1.994,31.044-1.542,48.162,1.35
			c17.12,2.894,33.056,8.6,47.809,17.118c13.714,7.917,23.289,16.366,28.726,25.351c5.439,8.98,6.67,17.635,3.689,25.962
			c-2.98,8.328-9.575,15.44-19.791,21.336c-5.528,3.192-11.356,5.666-17.502,7.369c-11.047-8.187-21.881-16.741-32.457-25.689
			c3.976-0.875,7.529-2.23,10.663-4.039c7.567-4.367,11.138-9.678,10.711-15.931c-0.426-6.252-5.082-11.946-13.973-17.078
			c-10.401-6.007-20.688-8.914-30.857-8.723c-6.831,0.131-14.442,1.101-22.82,2.978
			C367.996,1695.103,359.403,1685.939,351.078,1676.436L351.078,1676.436z"/>
		<path fill="#EBF5FF" d="M242.233,1814.48c-5.769-3.331-8.936-7.316-9.504-11.959c-0.567-4.64,2.504-8.899,9.22-12.775
			c5.959-3.443,13.053-5.135,21.28-5.079c8.229,0.054,15.368,1.828,21.423,5.324c5.959,3.438,8.937,7.508,8.937,12.202
			c0,4.698-2.978,8.766-8.937,12.204c-6.62,3.823-13.949,5.596-21.991,5.324C254.622,1819.449,247.812,1817.701,242.233,1814.48z"/>
	</g>
	<path fill="#3694EC" d="M494.403,1710.608c-0.01,3.004-0.536,5.966-1.582,8.887c-2.978,8.327-9.575,15.44-19.789,21.336
		c-8.039,4.642-16.717,7.766-26.034,9.377c-9.314,1.613-18.418,2.391-27.309,2.336c-8.888-0.056-24.353-0.438-46.388-1.148
		c-6.148-0.164-11.301-0.164-15.462,0c-4.161,0.164-7.638,0.506-10.429,1.023c-2.79,0.52-5.368,1.164-7.73,1.925
		c-2.367,0.765-6.384,2.184-12.059,4.26c-11.633,4.64-22.178,4.231-31.634-1.23c-0.883-0.508-1.689-1.035-2.418-1.572v21.812
		l0.005,0.318c0,4.695-2.98,8.766-8.936,12.204c-6.62,3.821-13.95,5.598-21.989,5.324c-8.041-0.273-14.849-2.022-20.43-5.242
		c-5.768-3.331-8.936-7.316-9.504-11.956c-0.027-0.217-0.046-0.433-0.054-0.649v-0.002c-0.016-0.286-0.016-0.575,0-0.858v-28.549
		h55.801c-0.035-0.26-0.055-0.518-0.065-0.781c-0.009-0.211-0.004-0.421,0.007-0.632l0,0v-29.409h147.101
		c6.352-4.153,9.33-9.101,8.941-14.842c-0.426-6.251-5.084-11.945-13.974-17.077c-10.404-6.007-20.689-8.915-30.854-8.723
		c-10.168,0.189-22.06,2.25-35.677,6.183c-13.904,4.315-25.349,3.877-34.332-1.309c-5.296-3.058-7.897-6.717-7.803-10.977
		c0.009-0.409,0.037-0.81,0.084-1.203v-28.128h122.433v18.899c5.51,2.307,10.871,4.966,16.083,7.977
		c6.064,3.5,11.317,7.103,15.762,10.812h18.235v31.565v0.032V1710.608L494.403,1710.608L494.403,1710.608z"/>
	<path fill="#C1E1FF" d="M328.485,1629.706c8.984-5.189,20.972-8.777,35.963-10.771c14.988-1.991,31.044-1.542,48.161,1.353
		c17.118,2.892,33.054,8.6,47.809,17.117c13.712,7.919,23.286,16.369,28.726,25.35c5.439,8.981,6.668,17.636,3.688,25.962
		c-2.978,8.328-9.576,15.44-19.789,21.339c-8.039,4.64-16.717,7.766-26.033,9.379c-9.314,1.608-18.419,2.388-27.309,2.335
		c-8.889-0.057-24.351-0.44-46.388-1.149c-6.146-0.163-11.301-0.163-15.462,0c-4.162,0.164-7.636,0.505-10.429,1.024
		c-2.788,0.518-5.366,1.161-7.731,1.925c-2.364,0.763-6.384,2.184-12.058,4.257c-11.633,4.643-22.178,4.234-31.635-1.227
		c-4.919-2.84-7.448-6.158-7.59-9.953c-0.142-3.795,2.955-7.521,9.291-11.18c7.946-4.587,16.056-7.85,24.331-9.788
		c8.275-1.939,16.647-3.003,25.111-3.193c8.462-0.192,19.175-0.041,32.131,0.449c11.35,0.437,19.718,0.657,25.109,0.657
		c5.391,0,10.664-0.424,15.818-1.271c5.155-0.845,9.672-2.389,13.549-4.626c7.568-4.37,11.136-9.681,10.711-15.933
		s-5.084-11.944-13.974-17.076c-10.402-6.006-20.687-8.916-30.854-8.724c-10.166,0.192-22.06,2.253-35.677,6.186
		c-13.902,4.313-25.347,3.876-34.332-1.312c-5.297-3.058-7.897-6.715-7.803-10.975c0.096-4.257,2.319-7.643,6.668-10.157V1629.706z"
		/>
	<path fill="#C1E1FF" d="M242.233,1759.44c-5.769-3.331-8.936-7.316-9.504-11.959c-0.567-4.64,2.504-8.899,9.22-12.775
		c5.959-3.441,13.053-5.132,21.28-5.079c8.229,0.054,15.368,1.828,21.423,5.324c5.959,3.44,8.937,7.508,8.937,12.202
		c0,4.697-2.978,8.766-8.937,12.205c-6.62,3.823-13.949,5.597-21.991,5.324C254.622,1764.409,247.812,1762.662,242.233,1759.44z"/>
	<path fill="#E8F4FF" d="M242.922,1734.162c-5.407,3.359-7.869,7.026-7.382,11.003c0.515,4.213,3.39,7.831,8.625,10.852
		c5.061,2.923,11.242,4.51,18.535,4.756c7.295,0.248,13.945-1.362,19.954-4.829c5.407-3.123,8.11-6.812,8.11-11.075
		c0-4.005-2.388-7.508-7.165-10.505c0.355,0.188,0.705,0.383,1.053,0.584c5.959,3.441,8.937,7.508,8.937,12.204
		s-2.978,8.764-8.937,12.205c-6.62,3.82-13.952,5.596-21.991,5.321c-8.039-0.271-14.849-2.019-20.428-5.242
		c-5.769-3.33-8.939-7.316-9.504-11.957c-0.567-4.643,2.504-8.901,9.22-12.778c0.321-0.183,0.643-0.364,0.973-0.539V1734.162z"/>
	<path fill="#E8F4FF" d="M459.254,1636.727c0.392,0.223,0.781,0.445,1.17,0.666c13.712,7.919,23.287,16.37,28.726,25.351
		c5.439,8.983,6.668,17.638,3.688,25.963c-2.978,8.328-9.575,15.44-19.789,21.336c-8.04,4.643-16.718,7.767-26.034,9.379
		c-9.314,1.611-18.418,2.389-27.309,2.335c-8.889-0.056-24.351-0.437-46.388-1.148c-6.146-0.164-11.301-0.164-15.462,0
		c-4.161,0.163-7.636,0.506-10.429,1.024c-2.788,0.517-5.365,1.159-7.73,1.924c-2.365,0.765-6.384,2.184-12.059,4.26
		c-11.633,4.64-22.178,4.231-31.634-1.228c-4.919-2.841-7.449-6.158-7.591-9.954c-0.096-2.552,1.275-5.072,4.109-7.562
		c-0.662,1.219-0.969,2.445-0.923,3.677c0.138,3.675,2.587,6.884,7.346,9.633c9.156,5.286,19.363,5.682,30.623,1.19
		c5.491-2.009,9.383-3.383,11.67-4.122c2.289-0.74,4.784-1.362,7.486-1.864c2.701-0.503,6.064-0.832,10.092-0.991
		c4.027-0.159,9.016-0.159,14.969,0c21.329,0.687,36.295,1.058,44.902,1.109c8.605,0.053,17.415-0.702,26.432-2.259
		c9.016-1.558,17.417-4.584,25.197-9.078c9.887-5.71,16.271-12.593,19.155-20.652c2.884-8.06,1.693-16.436-3.569-25.131
		C480.792,1652.149,471.91,1644.195,459.254,1636.727L459.254,1636.727z M329.7,1629.015c-3.756,2.386-5.677,5.524-5.764,9.412
		c-0.092,4.124,2.426,7.665,7.552,10.625c8.696,5.022,19.775,5.443,33.23,1.268c13.185-3.805,24.694-5.801,34.535-5.986
		c9.841-0.186,19.798,2.63,29.867,8.444c5.034,2.907,8.666,5.999,10.896,9.275c-2.294-2.574-5.471-5.033-9.529-7.377
		c-10.402-6.006-20.687-8.914-30.854-8.721c-10.165,0.191-22.059,2.253-35.677,6.183c-13.902,4.313-25.347,3.879-34.331-1.312
		c-5.296-3.055-7.897-6.715-7.803-10.972c0.096-4.26,2.319-7.646,6.668-10.157C328.886,1629.467,329.289,1629.239,329.7,1629.015z"
		/>
</g>
<g>
	<g>
		<g>
			<path fill="#D8EBFF" d="M965.512,1527.378c-6.263,3.617-15.749,4.011-21.172,0.879L498.079,1270.61
				c-5.425-3.133-4.743-8.608,1.52-12.226l296.262-171.047c6.263-3.615,15.751-4.009,21.174-0.878l446.258,257.647
				c5.425,3.132,4.743,8.61-1.519,12.224L965.512,1527.378L965.512,1527.378z"/>
		</g>
		<g>
			<path fill="#BE8EFF" d="M499.263,1230.265c0.107-0.066,0.217-0.129,0.327-0.194c0,0,58.433-33.737,76.727-44.298
				c9.305-5.373,2.09-17.741,2.507-26.006v-9.612h6.702v1.479l119.779-69.158c12.73-7.348,34.966,8.638,48.013,1.104
				c18.525-10.694,42.534-24.557,42.534-24.557c6.265-3.614,15.751-4.008,21.173-0.876l443.755,256.203l6.109-3.528v8.771
				c0.013,0.236,0.012,0.474-0.009,0.715c0.434,2.628-1.311,5.513-5.116,7.712l-296.26,171.046
				c-6.265,3.616-15.751,4.011-21.174,0.879l-446.262-257.65c-2.529-1.46-3.73-3.431-3.656-5.484
				c-0.007-0.189-0.004-0.38,0.01-0.569l-0.014-0.007v-8.771l4.855,2.802L499.263,1230.265z"/>
			<path fill="#B37BFF" d="M1205.18,1288.396l-245.993,142.025v70.118c2.479-0.553,4.853-1.429,6.916-2.621l295.026-170.332
				c3.953-2.284,5.91-5.232,5.764-7.992v-8.771l-11.182,6.456v0.295L1205.18,1288.396L1205.18,1288.396z"/>
			<path fill="#9647FF" d="M965.512,1489.456c-6.263,3.615-15.749,4.011-21.172,0.876l-446.261-257.648
				c-5.425-3.129-4.743-8.608,1.52-12.223c0,0,58.433-33.737,76.725-44.298c12.29-7.097-4.226-26.384,6.05-32.314
				c21.575-12.458,101.367-58.524,122.941-70.982c12.729-7.348,34.966,8.636,48.013,1.103
				c18.525-10.694,42.533-24.557,42.533-24.557c6.265-3.614,15.751-4.008,21.174-0.877l446.258,257.648
				c5.425,3.132,4.743,8.608-1.519,12.226L965.512,1489.456L965.512,1489.456z"/>
		</g>
	</g>
	<g>
		<g>
			<path fill="#7E1CFF" d="M950.48,1451.188c-4.962,2.865-12.482,3.177-16.781,0.693l-353.738-204.23
				c-4.298-2.48-3.758-6.821,1.204-9.689l234.839-135.584c4.965-2.866,12.485-3.177,16.783-0.696l353.738,204.23
				c4.295,2.482,3.758,6.824-1.208,9.69L950.48,1451.188z"/>
		</g>
		<g>
			<path fill="#B2D9FF" d="M577.077,1230.062c-0.13,1.867,0.927,3.666,3.221,4.99l351.968,203.212
				c4.788,2.765,13.164,2.417,18.695-0.776l233.859-135.018c3.135-1.811,4.684-4.147,4.57-6.335l0,0v-6.953l-8.865,5.119v0.232
				l-346.331-199.952c-4.789-2.765-13.165-2.42-18.695,0.773l-229.854,132.707l-8.579-4.954v6.953L577.077,1230.062
				L577.077,1230.062z"/>
			<path fill="#9DCFFF" d="M1140.461,1271.406l-194.989,112.578v55.58c1.966-0.439,3.848-1.134,5.482-2.078l233.857-135.018
				c3.136-1.811,4.686-4.147,4.571-6.335v-6.953l-8.865,5.119v0.232L1140.461,1271.406L1140.461,1271.406z"/>
			<path fill="#EDF6FF" d="M950.48,1430.769c-4.962,2.866-12.482,3.177-16.781,0.696l-353.738-204.23
				c-4.298-2.482-3.758-6.824,1.204-9.689l234.839-135.585c4.965-2.867,12.485-3.177,16.783-0.696l353.738,204.23
				c4.295,2.483,3.758,6.824-1.208,9.69L950.48,1430.769z"/>
			<g>
				<path fill="#7EC0FF" d="M690.172,1204.545c-1.3-0.77-3.392-0.785-4.674-0.029l-23.44,13.792
					c-1.281,0.753-1.265,1.991,0.032,2.763l2.543,1.506c1.3,0.772,3.395,0.785,4.677,0.029l23.44-13.792
					c1.28-0.753,1.266-1.991-0.035-2.76L690.172,1204.545z"/>
				<path fill="#7EC0FF" d="M831.593,1292.81c-1.3-0.771-3.395-0.784-4.677-0.031l-23.44,13.794c-1.28,0.753-1.263,1.989,0.034,2.76
					l2.543,1.509c1.3,0.769,3.394,0.782,4.674,0.028l23.44-13.79c1.282-0.756,1.269-1.993-0.032-2.762L831.593,1292.81z"/>
				<path fill="#7EC0FF" d="M755.672,1191.57c-1.296-0.781-3.388-0.812-4.672-0.068l-67.507,39.284
					c-1.286,0.742-1.28,1.981,0.014,2.765l2.527,1.529c1.293,0.778,3.385,0.807,4.67,0.063l67.509-39.279
					c1.284-0.747,1.28-1.986-0.014-2.768L755.672,1191.57z"/>
				<path fill="#7EC0FF" d="M897.794,1281.406c-1.298-0.771-3.394-0.784-4.674-0.028l-67.257,39.78
					c-1.282,0.754-1.266,1.991,0.034,2.762l2.543,1.507c1.3,0.771,3.397,0.782,4.677,0.026l67.259-39.778
					c1.277-0.756,1.263-1.991-0.037-2.763L897.794,1281.406z"/>
				<path fill="#7EC0FF" d="M820.163,1232.127c-1.3-0.769-3.397-0.784-4.676-0.031l-67.271,39.755
					c-1.282,0.753-1.266,1.991,0.034,2.763l2.543,1.506c1.298,0.772,3.394,0.785,4.674,0.029l67.271-39.753
					c1.282-0.753,1.266-1.991-0.035-2.76L820.163,1232.127z"/>
				<path fill="#7EC0FF" d="M827.227,1150c-1.293-0.781-3.386-0.81-4.672-0.066l-60.07,34.823c-1.286,0.747-1.279,1.985,0.012,2.766
					l2.529,1.529c1.291,0.781,3.385,0.81,4.67,0.066l60.072-34.824c1.286-0.745,1.28-1.984-0.013-2.768L827.227,1150z"/>
				<path fill="#7EC0FF" d="M972.189,1235.045c-1.3-0.769-3.397-0.781-4.676-0.026l-59.85,35.267
					c-1.282,0.756-1.266,1.995,0.035,2.763l2.543,1.506c1.3,0.769,3.394,0.781,4.676,0.028l59.85-35.269
					c1.282-0.754,1.266-1.993-0.034-2.762L972.189,1235.045z"/>
				<path fill="#7EC0FF" d="M894.721,1188.312c-1.3-0.769-3.395-0.784-4.677-0.029l-59.863,35.244
					c-1.28,0.753-1.263,1.991,0.037,2.76l2.541,1.509c1.3,0.772,3.397,0.785,4.676,0.031l59.861-35.242
					c1.282-0.756,1.266-1.994-0.032-2.766L894.721,1188.312L894.721,1188.312z"/>
				<path fill="#7EC0FF" d="M765.842,1204.724c-1.3-0.769-3.395-0.784-4.677-0.03l-61.877,36.441
					c-1.28,0.756-1.263,1.991,0.034,2.763l2.543,1.506c1.3,0.772,3.394,0.785,4.674,0.029l61.88-36.441
					c1.279-0.753,1.265-1.991-0.035-2.76L765.842,1204.724L765.842,1204.724z"/>
				<path fill="#7EC0FF" d="M906.796,1293.242c-1.298-0.769-3.393-0.782-4.674-0.026l-61.878,36.441
					c-1.282,0.753-1.269,1.99,0.032,2.76l2.543,1.509c1.3,0.769,3.395,0.784,4.677,0.028l61.877-36.44
					c1.28-0.756,1.266-1.991-0.034-2.763L906.796,1293.242z"/>
				<path fill="#7EC0FF" d="M831.174,1245.487c-1.3-0.769-3.395-0.782-4.677-0.026l-61.877,36.441
					c-1.282,0.753-1.266,1.99,0.034,2.76l2.54,1.509c1.3,0.769,3.397,0.784,4.677,0.028l61.877-36.44
					c1.28-0.756,1.267-1.991-0.034-2.763L831.174,1245.487z"/>
				<path fill="#7EC0FF" d="M763.862,1223.686c-1.3-0.769-3.394-0.782-4.676-0.029l-45.072,26.536
					c-1.282,0.754-1.266,1.993,0.034,2.765l2.54,1.506c1.3,0.769,3.397,0.784,4.677,0.031l45.074-26.535
					c1.28-0.756,1.266-1.994-0.037-2.763L763.862,1223.686z"/>
				<path fill="#7EC0FF" d="M906.828,1313.727c-1.3-0.769-3.397-0.782-4.677-0.026l-45.074,26.534
					c-1.28,0.753-1.263,1.991,0.035,2.76l2.543,1.509c1.3,0.772,3.394,0.785,4.674,0.031l45.074-26.536
					c1.28-0.756,1.266-1.991-0.034-2.763L906.828,1313.727z"/>
				<path fill="#7EC0FF" d="M828.743,1264.691c-1.3-0.769-3.395-0.784-4.677-0.031l-45.072,26.536
					c-1.282,0.756-1.266,1.994,0.034,2.763l2.541,1.509c1.3,0.769,3.394,0.782,4.676,0.029l45.074-26.536
					c1.28-0.754,1.263-1.993-0.034-2.762L828.743,1264.691L828.743,1264.691z"/>
				<path fill="#7EC0FF" d="M863.503,1147.251c-1.3-0.772-3.395-0.785-4.674-0.031l-85.816,50.504
					c-1.281,0.753-1.265,1.991,0.032,2.763l2.543,1.506c1.302,0.769,3.395,0.784,4.677,0.029l85.814-50.503
					c1.28-0.756,1.266-1.991-0.034-2.76L863.503,1147.251z"/>
				<path fill="#7EC0FF" d="M1004.982,1235.485c-1.3-0.772-3.394-0.785-4.676-0.032l-85.815,50.506
					c-1.28,0.753-1.266,1.991,0.037,2.76l2.541,1.509c1.3,0.772,3.394,0.784,4.676,0.029l85.814-50.503
					c1.28-0.756,1.267-1.994-0.035-2.763L1004.982,1235.485z"/>
				<path fill="#7EC0FF" d="M936.201,1184.071c-1.3-0.771-3.397-0.784-4.676-0.031l-85.815,50.504
					c-1.282,0.756-1.266,1.993,0.034,2.763l2.542,1.506c1.3,0.772,3.395,0.785,4.677,0.032l85.812-50.506
					c1.283-0.754,1.267-1.99-0.034-2.762L936.201,1184.071z"/>
				<path fill="#7EC0FF" d="M891.271,1148.732c-1.302-0.769-3.396-0.783-4.676-0.028l-115.03,67.698
					c-1.28,0.754-1.264,1.993,0.034,2.762l2.542,1.509c1.3,0.769,3.395,0.784,4.677,0.029l115.028-67.698
					c1.28-0.754,1.266-1.991-0.035-2.763L891.271,1148.732L891.271,1148.732z"/>
				<path fill="#7EC0FF" d="M1032.584,1236.568c-1.3-0.769-3.396-0.784-4.675-0.031l-115.027,67.699
					c-1.282,0.753-1.266,1.991,0.032,2.763l2.542,1.509c1.3,0.769,3.395,0.782,4.675,0.028l115.03-67.698
					c1.28-0.754,1.266-1.993-0.034-2.762L1032.584,1236.568L1032.584,1236.568z"/>
				<path fill="#7EC0FF" d="M956.136,1189.735c-1.298-0.769-3.394-0.782-4.677-0.028l-115.025,67.698
					c-1.282,0.756-1.268,1.993,0.032,2.763l2.543,1.506c1.299,0.772,3.394,0.785,4.676,0.032l115.028-67.699
					c1.282-0.753,1.266-1.991-0.034-2.763L956.136,1189.735L956.136,1189.735z"/>
			</g>
		</g>
	</g>
	<path fill="#AED6FF" d="M783.964,1100.468l-7.815,4.513c5.487,6.661,3.457,14.879-6.084,20.388l-104.404,60.276l-0.112,0.068
		l-0.048,0.026c-9.55,5.43-23.683,6.569-35.153,3.419l-7.814,4.511c15.89,5.421,36.7,4.222,50.416-3.598l0.19-0.109l104.404-60.276
		C791.255,1121.771,793.395,1109.687,783.964,1100.468L783.964,1100.468z"/>
	<path fill="#FFFFFF" d="M672.952,1183.717l0.19-0.107l104.404-60.278c16.247-9.38,16.247-24.615,0-33.995
		c-2.065-1.19-5.417-1.19-7.478,0c-2.065,1.193-2.065,3.127,0,4.318c12.12,7,12.12,18.36,0,25.36l-104.404,60.276l-0.112,0.068
		l-0.037,0.019c-0.005,0.001-0.009,0.004-0.011,0.007c-12.139,6.903-31.697,6.874-43.76-0.094c-2.065-1.192-5.416-1.192-7.478,0
		c-2.064,1.192-2.064,3.126,0,4.319C630.448,1192.954,656.69,1192.99,672.952,1183.717L672.952,1183.717z"/>
</g>
<g>
	<path fill="#0E4D94" d="M969.383,594.021c1.751,0,3.198-1.417,3.257-3.214l0.371-11.772l-0.07-0.787l-75.874-370.159
		c-2.179-10.245-10.214-17.087-20.469-17.454c-10.337-0.38-18.74,5.882-21.611,15.919l-74.57,273.897
		c-0.476,1.771,0.536,3.6,2.27,4.085c1.721,0.484,3.528-0.544,4.011-2.305l74.557-273.859c2.431-8.497,9.697-11.32,15.115-11.104
		c5.452,0.194,12.476,3.506,14.323,12.202l75.789,369.746l-0.355,11.379c-0.057,1.834,1.36,3.369,3.154,3.427H969.383
		L969.383,594.021z"/>
	<path fill="#DBDBFA" d="M927.063,178.274l-21.528-12.751c-9.898,14.321-21.742,25.57-33.606,32.554
		c-10.758,6.329-21.54,9.152-30.909,7.577c-13.585-2.266-29.297,1.566-45.424,11.05l21.533,12.751
		c16.122-9.485,31.835-13.316,45.42-11.05c9.366,1.57,20.152-1.253,30.909-7.58C905.326,203.844,917.165,192.594,927.063,178.274z"
		/>
	<path fill="#EAEAFC" d="M817.133,229.455l-21.536-12.751L578.402,344.489l21.528,12.75L817.133,229.455z"/>
	<path fill="#B7C4EE" d="M599.684,357.375l0.131,45.822l217.385-144.131c11.281-6.634,22.211-9.294,31.692-7.701
		c13.515,2.263,29.098-1.836,44.604-10.956c17.132-10.079,34.243-26.324,48.547-47.048l20.881-30.245l-35.87,15.159
		c-9.898,14.32-21.737,25.57-33.608,32.55c-10.756,6.328-21.54,9.151-30.909,7.58c-13.585-2.265-29.297,1.566-45.419,11.05
		L599.684,357.375L599.684,357.375z"/>
	<path fill="#B7C4EE" d="M1003.016,567.383c0,54.008-56.235,97.791-125.61,97.791c-69.37,0-125.605-43.783-125.605-97.791H1003.016z
		"/>
	<path fill="#EAEAFC" d="M1013.021,550.149H741.278v11.805c0,44.529,60.83,80.623,135.871,80.623
		c75.04,0,135.871-36.094,135.871-80.623l-0.046-1.112h0.046V550.149z"/>
	<path fill="#EAEAFC" d="M741.285,550.703c0,44.529,60.828,80.626,135.872,80.626c75.04,0,135.872-36.096,135.872-80.626
		c0-44.53-60.832-80.625-135.872-80.625C802.112,470.078,741.285,506.173,741.285,550.703z"/>
	<path fill="#2C2982" d="M752.776,551.063c0,40.764,55.686,73.808,124.385,73.808c68.695,0,124.378-33.045,124.378-73.808
		c0-40.765-55.683-73.81-124.378-73.81C808.462,477.253,752.776,510.297,752.776,551.063L752.776,551.063z"/>
	<path fill="#849AE2" d="M877.152,492.892c64.243,0,117.097,28.903,123.683,65.99c0.455-2.571,0.703-5.178,0.703-7.82
		c0-40.765-55.691-73.81-124.386-73.81c-68.693,0-124.385,33.045-124.385,73.81c0,2.641,0.245,5.249,0.701,7.82
		C760.051,521.795,812.909,492.892,877.152,492.892L877.152,492.892z"/>
	<path fill="#FFFFFF" d="M877.152,633.895c75.04,0,135.874-36.099,135.874-80.63c0-0.274-0.018-0.55-0.029-0.822
		c-1.566,43.724-61.786,78.886-135.844,78.886c-74.06,0-134.283-35.162-135.842-78.886c-0.018,0.275-0.029,0.547-0.029,0.822
		C741.28,597.796,802.114,633.895,877.152,633.895z"/>
	<path fill="#0E4D94" d="M968.873,594.135c1.666,0,3.087-1.297,3.239-3.024c0.16-1.826-1.163-3.438-2.953-3.601l-2.914-0.27
		c-3.01-0.28-5.537-2.479-6.283-5.462l-0.605-2.413c-0.439-1.779-2.231-2.85-3.956-2.398c-1.742,0.451-2.797,2.257-2.355,4.038
		l0.605,2.41c1.423,5.704,6.249,9.9,12.009,10.436l2.918,0.27l0.298,0.013H968.873z"/>
	<path fill="#B7C4EE" d="M972.743,578.389l-3.228,1.646l-6.592,10.303l-0.867,6.899c1.375,0.819,3.278,0.71,5.392-0.531
		c4.187-2.463,7.584-8.435,7.584-13.329C975.032,580.893,974.151,579.172,972.743,578.389z M979.367,575.017
		c0.378,1.176,0.591,2.545,0.591,4.089v18.04l-19.326,11.37l-0.817,6.471l-4.873-3.122v-18.04c0-8.076,5.599-17.918,12.507-21.986
		c3.184-1.873,6.082-2.173,8.289-1.179l0.009-0.004l0.055,0.034c0.469,0.217,0.916,0.478,1.314,0.814l4.136,2.553L979.367,575.017z"
		/>
	<path fill="#EAEAFC" d="M979.915,586.507c0-4.899-3.397-6.87-7.583-4.409c-4.187,2.466-7.584,8.431-7.584,13.329
		c0,4.896,3.397,6.869,7.584,4.404C976.518,597.37,979.915,591.4,979.915,586.507z M984.838,582.235v18.04l-25.014,14.714v-18.035
		c0-8.077,5.596-17.919,12.508-21.984C979.24,570.906,984.838,574.159,984.838,582.235z"/>
	<path fill="#B7C4EE" d="M786.317,474.021l-3.225,1.646l-6.588,10.303l-0.872,6.899c1.375,0.82,3.282,0.709,5.393-0.53
		c4.186-2.465,7.583-8.435,7.583-13.329C788.609,476.526,787.73,474.805,786.317,474.021z M792.945,470.649
		c0.379,1.178,0.588,2.544,0.588,4.089v18.038l-19.326,11.37l-0.815,6.475l-4.873-3.124v-18.038c0-8.077,5.596-17.92,12.508-21.986
		c3.181-1.873,6.079-2.173,8.285-1.183l0.01-0.004l0.057,0.037c0.467,0.215,0.914,0.476,1.316,0.814l4.134,2.553l-1.887,0.961
		H792.945z"/>
	<path fill="#EAEAFC" d="M793.473,482.137c0-4.898-3.392-6.867-7.581-4.407c-4.187,2.465-7.581,8.431-7.581,13.329
		c0,4.894,3.394,6.869,7.581,4.404C790.081,493.003,793.473,487.031,793.473,482.137z M798.4,477.868v18.038l-25.015,14.715v-18.033
		c0-8.082,5.599-17.92,12.508-21.987C792.802,466.536,798.4,469.791,798.4,477.868z"/>
	<path fill="#0E4D94" d="M789.694,486.156c4.143,0,8.224-1.646,11.228-4.713l4.477-4.558c1.272-1.298,1.272-3.399,0-4.696
		c-1.273-1.297-3.334-1.297-4.604,0l-4.485,4.562c-2.513,2.562-6.304,3.443-9.648,2.245c-1.703-0.607-3.557,0.309-4.152,2.035
		c-0.595,1.731,0.3,3.625,1.999,4.23C786.194,485.863,787.952,486.156,789.694,486.156L789.694,486.156z"/>
	<path fill="#0E4D94" d="M425.635,914.286c1.751,0,3.198-1.417,3.259-3.214l0.374-11.771l-0.071-0.787l-75.88-370.163
		c-2.177-10.246-10.207-17.088-20.462-17.455c-10.335-0.363-18.743,5.882-21.616,15.921l-74.566,273.9
		c-0.475,1.765,0.536,3.594,2.273,4.086c1.724,0.489,3.525-0.545,4.003-2.312l74.552-273.859
		c2.438-8.503,9.715-11.316,15.124-11.103c5.45,0.2,12.471,3.508,14.318,12.2l75.795,369.754l-0.359,11.376
		c-0.057,1.834,1.348,3.365,3.148,3.427H425.635z"/>
	<path fill="#DBDBFA" d="M609.225,249.734c14.046,0,25.433,11.603,25.433,25.911v79.35c0,8.338-11.388,15.092-25.433,15.092
		s-25.434-6.754-25.434-15.092l0.009-0.208h-0.009v-79.142C583.79,261.337,595.179,249.734,609.225,249.734z"/>
	<path fill="#D8EBFF" d="M707.409,1020.775c0,32.18-43.959,58.263-98.182,58.263c-54.225,0-98.182-26.083-98.182-58.263
		c0-32.177,43.957-58.261,98.182-58.261C663.45,962.514,707.409,988.598,707.409,1020.775z"/>
	<path fill="#768FDF" d="M511.039,990.308h196.367v14.311c0,32.18-43.961,58.263-98.182,58.263
		c-54.228,0-98.185-26.083-98.185-58.263l0.034-0.801h-0.034V990.308z"/>
	<path fill="#B7C4EE" d="M707.409,990.711c0,32.177-43.959,58.263-98.182,58.263c-54.225,0-98.182-26.086-98.182-58.263
		c0-32.18,43.957-58.262,98.182-58.262C663.45,932.45,707.409,958.531,707.409,990.711z"/>
	<path fill="#EAEAFC" d="M609.225,1048.739c53.637,0,97.198-25.521,98.134-57.217l0.048,1.039c0,32.177-43.959,58.264-98.182,58.264
		c-54.228,0-98.182-26.086-98.182-58.264l0.043-1.039C512.026,1023.218,555.589,1048.739,609.225,1048.739z"/>
	<path fill="#768FDF" d="M576.882,931.319h64.685l32.344,51.584c0,21.199-28.961,38.383-64.686,38.383
		c-35.726,0-64.686-17.184-64.686-38.383L576.882,931.319z"/>
	<path fill="#B7C4EE" d="M641.568,931.447c0,10.603-14.48,19.193-32.342,19.193c-17.864,0-32.345-8.591-32.345-19.193
		c0-10.598,14.481-19.189,32.345-19.189C627.089,912.258,641.568,920.849,641.568,931.447z"/>
	<path fill="#DBDBFA" d="M609.225,950.565c17.669,0,32.017-8.407,32.328-18.848l0.014,0.341c0,10.601-14.478,19.194-32.342,19.194
		c-17.864,0-32.342-8.593-32.342-19.194l0.014-0.341C577.203,942.158,591.555,950.565,609.225,950.565z"/>
	<path fill="#DBDBFA" d="M583.813,325.934h50.822v603.536c0,8.33-11.381,15.083-25.411,15.083c-14.039,0-25.411-6.753-25.411-15.083
		l0.007-0.205h-0.007V325.934z"/>
	<path fill="#DBDBFA" d="M288.415,528.58c9.93,2.66,21.787-0.035,33.651-7.014c10.756-6.329,21.515-16.182,30.845-28.753
		c13.529-18.218,29.211-32.856,45.337-42.34l185.266-108.998l21.533,12.751L419.775,463.218
		c-16.12,9.488-31.807,24.128-45.333,42.339c-9.333,12.577-20.089,22.429-30.847,28.758c-11.867,6.979-23.717,9.674-33.65,7.014
		l-35.872,27.048l-21.528-12.743L288.415,528.58z"/>
	<path fill="#EAEAFC" d="M309.944,541.329l-35.87,27.048l-21.528-12.743l35.87-27.054L309.944,541.329L309.944,541.329z"/>
	<path fill="#EAEAFC" d="M962.919,163.122l-35.856,15.068l-21.528-12.747l35.853-15.07L962.919,163.122z"/>
	<path fill="#EAEAFC" d="M352.907,492.813c13.529-18.218,29.213-32.856,45.337-42.34l185.268-108.998l21.531,12.751l-185.27,108.992
		c-16.121,9.488-31.806,24.128-45.332,42.339L352.907,492.813z"/>
	<path fill="#B7C4EE" d="M419.784,463.218c-16.122,9.488-31.807,24.128-45.333,42.339c-9.332,12.577-20.089,22.429-30.847,28.758
		c-11.862,6.979-23.722,9.674-33.649,7.014l-35.872,27.048l21.018,5.594c14.336,3.882,31.485-0.034,48.615-10.11
		c15.536-9.14,31.06-23.341,44.52-41.483c9.438-12.717,20.382-22.931,31.635-29.548l185.309-92.781l-0.128-45.822L419.784,463.218
		L419.784,463.218z"/>
	<path fill="#B7C4EE" d="M459.27,887.648c0,54.011-56.239,97.791-125.61,97.791c-69.372,0-125.606-43.78-125.606-97.791H459.27z"/>
	<path fill="#EAEAFC" d="M469.276,870.411H197.53v11.805c0,44.527,60.83,80.628,135.874,80.628
		c75.037,0,135.871-36.101,135.871-80.628l-0.048-1.112h0.048V870.411z"/>
	<path fill="#EAEAFC" d="M197.532,870.968c0,44.527,60.827,80.626,135.872,80.626c75.04,0,135.874-36.098,135.874-80.626
		c0-44.529-60.834-80.629-135.874-80.629C258.359,790.338,197.532,826.439,197.532,870.968z"/>
	<path fill="#2C2982" d="M209.019,871.327c0,40.759,55.686,73.806,124.385,73.806c68.695,0,124.385-33.047,124.385-73.806
		c0-40.766-55.69-73.811-124.385-73.811C264.705,797.517,209.019,830.561,209.019,871.327z"/>
	<path fill="#849AE2" d="M333.406,813.153c64.242,0,117.097,28.904,123.682,65.989c0.454-2.567,0.703-5.178,0.703-7.817
		c0-40.764-55.693-73.808-124.385-73.808c-68.695,0-124.385,33.045-124.385,73.808c0,2.639,0.243,5.251,0.698,7.817
		C216.303,842.057,269.164,813.153,333.406,813.153z"/>
	<path fill="#FFFFFF" d="M333.406,954.157c75.038,0,135.872-36.096,135.872-80.628c0-0.272-0.019-0.542-0.03-0.817
		c-1.568,43.723-61.789,78.881-135.842,78.881c-74.062,0-134.283-35.162-135.842-78.886c-0.016,0.275-0.03,0.55-0.03,0.822
		C197.534,918.061,258.366,954.157,333.406,954.157z"/>
	<path fill="#FFFFFF" d="M333.406,951.593c74.053,0,134.274-35.158,135.842-78.881c-0.014-0.208-0.027-0.417-0.032-0.625
		c-1.302,43.863-61.585,79.183-135.81,79.183c-74.227,0-134.51-35.32-135.812-79.183c-0.009,0.208-0.023,0.412-0.03,0.62
		C199.124,916.431,259.344,951.593,333.406,951.593L333.406,951.593z"/>
	<path fill="#0E4D94" d="M425.127,914.396c1.666,0,3.085-1.295,3.239-3.019c0.16-1.823-1.161-3.443-2.953-3.606l-2.907-0.266
		c-3.008-0.279-5.542-2.479-6.288-5.471l-0.609-2.405c-0.44-1.776-2.216-2.839-3.96-2.395c-1.74,0.456-2.793,2.259-2.349,4.038
		l0.609,2.404c1.424,5.716,6.252,9.911,12.006,10.441l2.91,0.266L425.127,914.396L425.127,914.396z"/>
	<path fill="#B7C4EE" d="M428.995,898.654l-3.226,1.647l-6.592,10.303l-0.87,6.895c1.376,0.824,3.28,0.712,5.395-0.531
		c4.187-2.461,7.581-8.431,7.581-13.325C431.284,901.16,430.403,899.432,428.995,898.654L428.995,898.654z M435.62,895.282
		c0.378,1.172,0.591,2.541,0.591,4.088v18.04l-19.326,11.37l-0.817,6.474l-4.874-3.129v-18.033c0-8.083,5.599-17.919,12.51-21.987
		c3.182-1.873,6.08-2.174,8.286-1.184l0.009-0.002l0.055,0.035c0.469,0.217,0.916,0.479,1.318,0.81l4.134,2.557L435.62,895.282
		L435.62,895.282z"/>
	<path fill="#EAEAFC" d="M436.151,906.767c0-4.894-3.395-6.87-7.581-4.405c-4.187,2.465-7.584,8.431-7.584,13.327
		c0,4.899,3.397,6.872,7.584,4.406C432.756,917.633,436.151,911.665,436.151,906.767z M441.077,902.502v18.038l-25.014,14.714
		v-18.038c0-8.076,5.596-17.919,12.508-21.982C435.476,891.171,441.077,894.424,441.077,902.502z"/>
	<path fill="#B7C4EE" d="M242.57,794.287l-3.228,1.646l-6.588,10.303l-0.872,6.894c1.376,0.824,3.278,0.712,5.393-0.531
		c4.187-2.461,7.583-8.431,7.583-13.324C244.858,796.791,243.982,795.065,242.57,794.287z M249.194,790.915
		c0.38,1.172,0.588,2.538,0.588,4.088v18.038l-19.327,11.37l-0.814,6.475l-4.874-3.129v-18.035c0-8.081,5.599-17.917,12.508-21.987
		c3.184-1.87,6.082-2.172,8.286-1.181l0.009-0.002l0.057,0.034c0.47,0.218,0.916,0.478,1.314,0.808l4.136,2.559L249.194,790.915z"/>
	<path fill="#EAEAFC" d="M249.732,802.399c0-4.896-3.397-6.869-7.583-4.404c-4.187,2.466-7.584,8.43-7.584,13.324
		c0,4.902,3.397,6.875,7.584,4.409C246.335,813.263,249.732,807.298,249.732,802.399L249.732,802.399z M254.656,798.132v18.04
		l-25.014,14.714v-18.04c0-8.076,5.596-17.919,12.508-21.982C249.057,786.804,254.656,790.054,254.656,798.132z"/>
	<path fill="#0E4D94" d="M246.432,807.148c4.143,0,8.227-1.648,11.227-4.715l4.478-4.558c1.272-1.295,1.272-3.399,0-4.695
		c-1.273-1.298-3.333-1.298-4.604,0l-4.485,4.563c-2.513,2.561-6.304,3.443-9.65,2.243c-1.701-0.607-3.555,0.309-4.15,2.035
		c-0.595,1.731,0.3,3.626,1.999,4.232C242.932,806.856,244.689,807.148,246.432,807.148L246.432,807.148z"/>
	<g>
		<path fill="#EAEAFC" d="M667.865,284.471l21.661,8.854l-11.298,9.486c3.253,7.771,5.082,17.165,5.169,27.979
			c0.412,46.095-31.012,100.742-70.155,121.88c-7.636,4.141-15,6.7-21.92,7.798l5.892,8.999l-17.433-6.84
			c-15.973-6.738-26.279-24.517-26.473-50.516c-0.428-46.251,30.964-100.833,70.107-122.005
			C640.163,281.038,655.629,279.563,667.865,284.471L667.865,284.471z"/>
		<path fill="#C4CEF1" d="M716.007,343.923c0.409,46.095-31.015,100.744-70.16,121.881c-39.106,21.208-71.183,0.948-71.526-45.11
			c-0.428-46.251,30.962-100.832,70.105-122.004C683.534,277.515,715.629,297.743,716.007,343.923z"/>
		<path fill="#879DE3" d="M705.415,349.65c0.35,39.208-26.381,85.694-59.676,103.673c-33.267,18.04-60.552,0.805-60.843-38.37
			c-0.366-39.343,26.336-85.769,59.632-103.778C677.795,293.163,705.095,310.369,705.415,349.65z"/>
		<path fill="#B7C4EE" d="M701.545,352.909c0.338,37.716-25.375,82.429-57.401,99.725c-32,17.353-58.247,0.775-58.526-36.909
			c-0.353-37.843,25.333-82.502,57.359-99.826C674.978,298.575,701.236,315.125,701.545,352.909L701.545,352.909z"/>
	</g>
	<path fill="#0E4D94" d="M425.635,914.286c1.751,0,3.198-1.417,3.259-3.214l0.374-11.771l-0.071-0.787l-75.88-370.163
		c-1.561-7.339-6.238-13.092-12.844-15.815c-6.762-2.783-14.661-2.004-20.615,2.049c-1.49,1.023-1.895,3.081-0.895,4.606
		c1.002,1.517,3.024,1.936,4.516,0.914c4.187-2.851,9.758-3.391,14.558-1.412c4.638,1.911,7.803,5.833,8.907,11.036l75.795,369.754
		l-0.359,11.376c-0.057,1.834,1.348,3.363,3.148,3.427H425.635L425.635,914.286z"/>
	<path fill="#0E4D94" d="M969.383,594.021c1.751,0,3.198-1.417,3.257-3.214l0.371-11.772l-0.07-0.787l-75.874-370.159
		c-1.564-7.338-6.24-13.09-12.841-15.812c-6.771-2.785-14.669-2.006-20.618,2.05c-1.495,1.016-1.897,3.079-0.893,4.602
		c0.993,1.523,3.017,1.938,4.514,0.914c4.178-2.853,9.766-3.389,14.556-1.411c4.638,1.913,7.803,5.829,8.907,11.038l75.789,369.746
		l-0.355,11.379c-0.057,1.834,1.36,3.369,3.154,3.427H969.383L969.383,594.021z"/>
</g>
<g>
	<g>
		<path fill="#D8EBFF" d="M1185.66,1249.122c-6.261,3.615-15.749,4.009-21.172,0.878l-315.357-182.07
			c-5.422-3.132-4.74-8.609,1.52-12.224l211.186-121.929c6.263-3.614,15.749-4.01,21.175-0.876l315.354,182.072
			c5.426,3.129,4.743,8.607-1.52,12.221L1185.66,1249.122z"/>
		<path fill="#D89BFF" d="M1386.996,1095.819l-288.789-166.727l-222.646,128.556l300.506,173.442
			c0,0,172.695-99.678,213.898-123.458c1.802-1.039,2.914-2.964,2.914-5.047v-0.049c0-0.018,0-0.034,0-0.05l-0.003-0.032
			l-0.112-9.939L1386.996,1095.819L1386.996,1095.819z"/>
		<path fill="#D89BFF" d="M1385.168,1023.637l-286.957-165.673L875.563,986.522l300.508,173.442c0,0,172.693-99.677,213.897-123.455
			c1.804-1.042,2.914-2.967,2.914-5.05c0-0.096,0-0.19-0.006-0.284l0,0l-0.153-11.869L1385.168,1023.637L1385.168,1023.637z"/>
		<path fill="#A10AFF" d="M1389.939,1096.553c1.804-1.042,2.913-2.967,2.916-5.05c0-2.084-1.112-4.009-2.916-5.05
			c-49.451-28.55-291.757-168.444-291.757-168.444l-222.646,128.556l300.503,173.443
			C1176.039,1220.009,1348.736,1120.334,1389.939,1096.553L1389.939,1096.553z"/>
		<path fill="#D89BFF" d="M1389.593,1107.847c0,0-172.614,99.895-212.313,122.87c-1.657,0.958-3.701,0.958-5.356-0.003
			c-1.654-0.964-2.668-2.737-2.655-4.651c0.117-17.707,0.367-55.682,0.459-69.825c0.023-3.38,1.839-6.492,4.769-8.176
			c31.957-18.353,214.97-123.469,214.97-123.469l0.019,12.189c0,0-175.42,101.306-204.427,118.061
			c-2.501,1.441-4.039,4.109-4.034,6.996c0.015,10.689,0.051,36.949,0.068,48.969c0.001,1.28,0.684,2.458,1.789,3.097
			c1.108,0.637,2.47,0.637,3.576-0.002c32.621-18.819,203.119-117.183,203.119-117.183L1389.593,1107.847L1389.593,1107.847z"/>
		<path fill="#D89BFF" d="M869.802,1053.864v-0.043V1053.864z"/>
		<path fill="#D89BFF" d="M939.694,1020.929l-9.665-5.583l159.358-91.938l0.016,11.127L939.694,1020.929z"/>
		<path fill="#F1F1F1" d="M1185.076,1154.832l187.282-108.156l0.154,45.2l-191.432,110.547l-0.056-40.563
			C1181.023,1158.962,1182.565,1156.281,1185.076,1154.832L1185.076,1154.832z"/>

			<linearGradient id="SVGID_1_" gradientUnits="userSpaceOnUse" x1="38.1446" y1="1541.6873" x2="38.1453" y2="1541.6873" gradientTransform="matrix(192.3283 106.288 -90.9242 164.5267 133710.1406 -256649.0781)">
			<stop  offset="0" style="stop-color:#845AFF"/>
			<stop  offset="0.57" style="stop-color:#C077FF"/>
			<stop  offset="1" style="stop-color:#DA84FF"/>
		</linearGradient>
		<path fill="url(#SVGID_1_)" d="M869.832,1054.093l-0.03-0.229v0.211L869.832,1054.093z"/>
		<path fill="#E4A7FF" d="M1185.66,1141.654l-11.158,6.408c-2.928,1.683-4.744,4.796-4.765,8.176l-0.073,10.84l-299.643-173
			l0.046-12.947c0.007-2.092,1.126-4.022,2.937-5.068l12.928-7.458L1185.66,1141.654z"/>
		<path fill="#CA78FF" d="M1170.045,1153.916L870.061,981.078l-0.255,72.733c-0.004,1.348,0.63,2.61,1.687,3.41l0.44,0.294
			c0.082,0.048,0.164,0.094,0.249,0.135l299.706,173.035v-0.032l-0.066-0.07c-1.598-0.961-2.567-2.699-2.555-4.571
			c0.117-17.707,0.368-55.682,0.462-69.825L1170.045,1153.916z"/>
		<path fill="#9647FF" d="M1388.198,1025.326l1.585-0.916c1.821-1.053,2.945-2.998,2.945-5.105c0.003-2.104-1.121-4.051-2.945-5.105
			c-43.255-24.971-232.164-134.036-280.271-161.809c-6.906-3.987-15.418-3.987-22.324,0
			C1041.351,878.858,873.7,975.663,873.7,975.663l299.899,173.093l0.904-0.693L1388.198,1025.326z"/>
		<path fill="#FFFFFF" d="M975.353,988.927l10.886-6.283l38.471,22.213l25.797-14.895l8.432,4.867l-36.682,21.18L975.353,988.927
			L975.353,988.927z"/>
		<path fill="#FFFFFF" d="M1062.978,972.03l13.216-7.632l-24.959-6.902L1062.978,972.03L1062.978,972.03z M1034.47,954.793
			l12.296-7.101l65.353,16.431l-11.805,6.814l-12.999-3.628l-19.189,11.08l6.039,7.647l-11.382,6.57L1034.47,954.793
			L1034.47,954.793z"/>
		<path fill="#FFFFFF" d="M1078.924,929.128l33.75,11.526l8.959,3.461l-5.798-5.103l-21.148-18.985l11.483-6.632l33.042,11.937
			l9.068,3.399l-5.602-5.072l-20.18-19.691l11.061-6.387l32.238,35.55l-10.39,5.999l-33.72-12.205l-10.906-4.175l7.23,6.295
			l21.14,19.469l-10.105,5.837l-61.676-18.553L1078.924,929.128L1078.924,929.128z"/>
	</g>
</g>
<g>
	<path fill="#D8EBFF" d="M440.937,1580.426c-6.263,3.614-15.751,4.008-21.174,0.876l-176.196-101.725
		c-5.423-3.13-4.741-8.607,1.522-12.224l48.301-27.887c6.261-3.614,15.749-4.009,21.172-0.877l176.196,101.729
		c5.423,3.129,4.741,8.607-1.52,12.222L440.937,1580.426L440.937,1580.426z"/>
	<path fill="#D8EBFF" d="M511.82,1539.501c-6.265,3.615-15.751,4.009-21.173,0.878l-176.196-101.726
		c-5.422-3.129-4.741-8.61,1.523-12.224l48.301-27.887c6.261-3.614,15.749-4.008,21.17-0.876l176.196,101.725
		c5.423,3.132,4.743,8.61-1.517,12.224L511.82,1539.501L511.82,1539.501z"/>
	<path fill="#D8EBFF" d="M583.392,1498.173c-6.262,3.615-15.751,4.008-21.173,0.876l-176.193-101.726
		c-5.425-3.132-4.743-8.608,1.52-12.223l48.302-27.889c6.26-3.615,15.749-4.008,21.171-0.876l176.194,101.726
		c5.424,3.132,4.743,8.609-1.518,12.223L583.392,1498.173z"/>
	<g>
		<g>
			<path fill="#D89BFF" d="M436.888,1038.923l0.003,289.142l193.064,111.457l-0.042-300.854c0,0-149.72-86.467-185.441-107.096
				c-1.564-0.905-3.493-0.905-5.057-0.003l-0.037,0.023c-0.011,0.007-0.023,0.013-0.037,0.021l-0.023,0.013l-7.414,4.395
				L436.888,1038.923z"/>
			<path fill="#D89BFF" d="M383.482,1071.595l0.002,287.309l193.064,111.454l-0.042-300.854c0,0-149.723-86.467-185.441-107.096
				c-1.564-0.902-3.493-0.902-5.056,0c-0.071,0.042-0.14,0.083-0.208,0.128l0,0l-8.848,5.258L383.482,1071.595L383.482,1071.595z"/>
			<path fill="#A10AFF" d="M436.167,1036.396c-1.564-0.905-3.493-0.905-5.057-0.002c-1.563,0.904-2.527,2.573-2.527,4.379
				c0,49.509,0.002,292.116,0.002,292.116l193.064,111.456l-0.041-300.852C621.608,1143.493,471.886,1057.025,436.167,1036.396z"/>
			<path fill="#D89BFF" d="M444.792,1031.758c0,0,149.849,86.311,184.315,106.162c1.437,0.829,2.321,2.363,2.316,4.024
				c-0.004,1.66-0.895,3.189-2.339,4.011c-13.348,7.588-41.972,23.863-52.632,29.925c-2.548,1.448-5.673,1.435-8.206-0.035
				c-27.638-16.04-185.916-107.897-185.916-107.897l9.145-5.299c0,0,152.126,87.805,177.281,102.325
				c2.168,1.253,4.838,1.25,7.004-0.006c8.019-4.645,27.725-16.056,36.743-21.279c0.96-0.555,1.548-1.581,1.548-2.688
				c0-1.105-0.591-2.131-1.55-2.684c-28.277-16.338-176.058-101.722-176.058-101.722L444.792,1031.758z"/>
			<path fill="#D89BFF" d="M629.613,1445.485l-0.034,0.019L629.613,1445.485z"/>
			<path fill="#D89BFF" d="M574.57,1407.276v9.681l-138.126-79.806l8.348-4.838L574.57,1407.276z"/>
			<path fill="#F1F1F1" d="M568.751,1164.965l-162.414-93.743l33.874-19.712l166.01,95.823l-30.437,17.628
				C573.609,1166.22,570.928,1166.223,568.751,1164.965z"/>

				<linearGradient id="SVGID_2_" gradientUnits="userSpaceOnUse" x1="40.8929" y1="1536.0869" x2="40.8935" y2="1536.0869" gradientTransform="matrix(-3.5687 -190.505 162.967 -3.0529 -249555.8594 13925.3066)">
				<stop  offset="0" style="stop-color:#845AFF"/>
				<stop  offset="0.57" style="stop-color:#C077FF"/>
				<stop  offset="1" style="stop-color:#DA84FF"/>
			</linearGradient>
			<path fill="url(#SVGID_2_)" d="M629.762,1445.366l-0.159,0.122l0.159-0.094V1445.366z"/>
			<path fill="#E4A7FF" d="M558.595,1170.244l9.648,5.601c2.534,1.47,5.659,1.484,8.206,0.035l8.173-4.645v300.01l-9.743,5.581
				c-1.575,0.9-3.509,0.898-5.079-0.009l-11.205-6.473V1170.244L558.595,1170.244z"/>
			<path fill="#CA78FF" d="M574.57,1176.651l0.271,300.199l54.726-31.342c1.014-0.584,1.688-1.605,1.831-2.747l0.029-0.458
				c0-0.082-0.005-0.163-0.009-0.245v-300.077l-0.025,0.016l-0.023,0.081c-0.029,1.616-0.915,3.096-2.325,3.898
				c-13.348,7.59-41.972,23.866-52.632,29.927L574.57,1176.651z"/>
			<path fill="#9647FF" d="M383.436,1068.587l-1.374-0.792c-1.579-0.913-3.529-0.913-5.111,0c-1.58,0.914-2.554,2.6-2.554,4.427
				c0,43.308,0.002,232.447,0.002,280.614c0,6.915,3.69,13.306,9.68,16.763c39.744,22.944,185.125,106.871,185.125,106.871
				l-0.043-300.248l-0.911-0.377L383.436,1068.587z"/>
		</g>
	</g>
	<g>
		<g>
			<path fill="#D89BFF" d="M364.714,1080.591l0.004,289.145l193.064,111.454l-0.044-300.851c0,0-149.72-86.469-185.439-107.099
				c-1.566-0.901-3.493-0.901-5.059,0l-0.035,0.023c-0.012,0.007-0.026,0.013-0.037,0.021l-0.026,0.013l-7.412,4.394
				L364.714,1080.591L364.714,1080.591z"/>
			<path fill="#D89BFF" d="M311.308,1113.262l0.004,287.31l193.064,111.454l-0.043-300.852c0,0-149.721-86.466-185.44-107.096
				c-1.565-0.904-3.493-0.904-5.056-0.002c-0.071,0.041-0.139,0.084-0.211,0.128l0,0l-8.847,5.261l6.53,3.796H311.308z"/>
			<path fill="#A10AFF" d="M363.995,1078.064c-1.566-0.903-3.493-0.903-5.059,0c-1.564,0.904-2.527,2.573-2.527,4.379
				c0,49.509,0.001,292.116,0.001,292.116l193.064,111.454l-0.041-300.854C549.434,1185.16,399.714,1098.693,363.995,1078.064z"/>
			<path fill="#D89BFF" d="M372.62,1073.428c0,0,149.849,86.31,184.315,106.159c1.437,0.829,2.321,2.366,2.319,4.026
				c-0.004,1.661-0.9,3.19-2.342,4.012c-13.347,7.586-41.972,23.863-52.632,29.925c-2.548,1.448-5.672,1.432-8.206-0.037
				c-27.638-16.04-185.915-107.896-185.915-107.896l9.145-5.301c0,0,152.126,87.808,177.283,102.325
				c2.168,1.252,4.837,1.25,7.002-0.004c8.018-4.645,27.725-16.057,36.744-21.282c0.959-0.553,1.55-1.578,1.55-2.684
				c-0.002-1.108-0.593-2.132-1.552-2.686c-28.275-16.338-176.061-101.722-176.061-101.722L372.62,1073.428L372.62,1073.428z"/>
			<path fill="#D89BFF" d="M557.439,1487.16l-0.032,0.019L557.439,1487.16z"/>
			<path fill="#D89BFF" d="M502.399,1448.951l-0.003,9.68l-138.126-79.806l8.349-4.838L502.399,1448.951z"/>
			<path fill="#F1F1F1" d="M496.577,1206.635l-162.414-93.743l33.876-19.712l166.007,95.823l-30.435,17.626
				C501.435,1207.89,498.754,1207.89,496.577,1206.635L496.577,1206.635z"/>

				<linearGradient id="SVGID_3_" gradientUnits="userSpaceOnUse" x1="40.7715" y1="1535.8308" x2="40.7721" y2="1535.8308" gradientTransform="matrix(-3.5687 -190.505 162.967 -3.0529 -249586.7188 13943.0566)">
				<stop  offset="0" style="stop-color:#845AFF"/>
				<stop  offset="0.57" style="stop-color:#C077FF"/>
				<stop  offset="1" style="stop-color:#DA84FF"/>
			</linearGradient>
			<path fill="url(#SVGID_3_)" d="M557.603,1487.025l-0.158,0.122l0.158-0.091V1487.025z"/>
			<path fill="#E4A7FF" d="M486.423,1211.914l9.648,5.6c2.534,1.469,5.659,1.485,8.206,0.037l8.17-4.647v300.013l-9.742,5.579
				c-1.575,0.901-3.51,0.896-5.08-0.007l-11.202-6.476V1211.914L486.423,1211.914z"/>
			<path fill="#CA78FF" d="M502.399,1218.319l0.27,300.198l54.726-31.341c1.014-0.581,1.685-1.603,1.829-2.744l0.03-0.458
				c0-0.082-0.003-0.164-0.009-0.245v-300.078l-0.025,0.016l-0.023,0.078c-0.03,1.619-0.914,3.099-2.326,3.904
				c-13.345,7.586-41.972,23.86-52.632,29.924L502.399,1218.319L502.399,1218.319z"/>
			<path fill="#9647FF" d="M311.265,1110.256l-1.374-0.791c-1.582-0.914-3.53-0.914-5.111,0c-1.582,0.91-2.557,2.598-2.557,4.425
				c0,43.306,0.002,232.447,0.004,280.615c0,6.913,3.688,13.304,9.678,16.763c39.747,22.943,185.125,106.871,185.125,106.871
				l-0.041-300.246l-0.911-0.38L311.265,1110.256L311.265,1110.256z"/>
		</g>
	</g>
	<g>
		<g>
			<path fill="#D89BFF" d="M292.062,1122.54l0.002,289.143l193.064,111.457l-0.041-300.854c0,0-149.721-86.467-185.442-107.096
				c-1.563-0.904-3.491-0.904-5.056,0l-0.034,0.021c-0.014,0.006-0.028,0.013-0.039,0.022l-0.023,0.012l-7.414,4.395
				L292.062,1122.54z"/>
			<path fill="#D89BFF" d="M238.651,1155.212l0.002,287.309l193.064,111.454l-0.041-300.854c0,0-149.72-86.467-185.442-107.096
				c-1.564-0.901-3.491-0.901-5.056,0c-0.069,0.041-0.139,0.082-0.206,0.129l0,0l-8.85,5.257L238.651,1155.212L238.651,1155.212z"/>
			<path fill="#A10AFF" d="M291.34,1120.012c-1.561-0.904-3.488-0.904-5.054,0c-1.566,0.903-2.529,2.574-2.529,4.379
				c0.002,49.508,0.002,292.115,0.002,292.115l193.064,111.454l-0.041-300.852C476.782,1227.108,327.061,1140.643,291.34,1120.012z"
				/>
			<path fill="#D89BFF" d="M299.968,1115.375c0,0,149.849,86.311,184.313,106.162c1.44,0.828,2.323,2.363,2.319,4.024
				c-0.004,1.66-0.897,3.189-2.342,4.011c-13.345,7.588-41.969,23.863-52.632,29.927c-2.548,1.447-5.67,1.432-8.204-0.037
				c-27.638-16.04-185.917-107.897-185.917-107.897l9.147-5.299c0,0,152.126,87.805,177.281,102.325
				c2.168,1.253,4.837,1.249,7.004-0.006c8.018-4.645,27.725-16.056,36.744-21.279c0.957-0.555,1.547-1.58,1.547-2.688
				c0-1.108-0.591-2.131-1.552-2.684c-28.274-16.338-176.058-101.722-176.058-101.722L299.968,1115.375z"/>
			<path fill="#D89BFF" d="M484.786,1529.105l-0.03,0.021L484.786,1529.105z"/>
			<path fill="#D89BFF" d="M429.746,1490.896l-0.002,9.68l-138.129-79.805l8.351-4.84L429.746,1490.896z"/>
			<path fill="#F1F1F1" d="M423.925,1248.582l-162.414-93.743l33.876-19.712l166.007,95.822l-30.438,17.628
				C428.783,1249.837,426.101,1249.84,423.925,1248.582z"/>

				<linearGradient id="SVGID_4_" gradientUnits="userSpaceOnUse" x1="40.6497" y1="1535.5726" x2="40.6504" y2="1535.5726" gradientTransform="matrix(-3.5687 -190.505 162.967 -3.0529 -249617.7344 13961.0322)">
				<stop  offset="0" style="stop-color:#845AFF"/>
				<stop  offset="0.57" style="stop-color:#C077FF"/>
				<stop  offset="1" style="stop-color:#DA84FF"/>
			</linearGradient>
			<path fill="url(#SVGID_4_)" d="M484.938,1528.985l-0.161,0.122l0.161-0.091V1528.985z"/>
			<path fill="#E4A7FF" d="M413.769,1253.861l9.65,5.602c2.534,1.469,5.659,1.484,8.204,0.037l8.172-4.646v300.01l-9.742,5.581
				c-1.572,0.9-3.507,0.898-5.077-0.009l-11.207-6.473V1253.861z"/>
			<path fill="#CA78FF" d="M429.746,1260.268l0.268,300.196l54.727-31.339c1.014-0.584,1.687-1.606,1.831-2.747l0.03-0.457
				c0-0.083-0.004-0.164-0.01-0.246v-300.078l-0.025,0.016l-0.023,0.079c-0.03,1.617-0.913,3.098-2.325,3.901
				c-13.348,7.588-41.973,23.865-52.633,29.925L429.746,1260.268z"/>
			<path fill="#9647FF" d="M238.607,1152.207l-1.373-0.795c-1.582-0.913-3.53-0.913-5.112,0c-1.581,0.914-2.554,2.6-2.554,4.427
				c0,43.308,0.002,232.447,0.002,280.614c0,6.915,3.69,13.304,9.678,16.763c39.747,22.945,185.125,106.871,185.125,106.871
				l-0.041-300.245l-0.911-0.38L238.607,1152.207z"/>
		</g>
	</g>
</g>
<g>
	<g>
		<path fill="#D8EBFF" d="M652.895,1616.564c73.318-41.099,190.644-40.707,263.162,1.161c13.366,7.719,24.294,16.314,32.756,25.485
			l-86.964,20.673c-3.335-2.881-7.213-5.613-11.615-8.154c-36.187-20.896-94.527-21.285-131.518-1.164L652.895,1616.564
			L652.895,1616.564z"/>
		<path fill="#D8EBFF" d="M640.413,1624.05l65.824,38.003l-2.12,1.161c-36.876,21.293-36.876,55.865,0,77.156
			c4.405,2.54,9.133,4.78,14.124,6.707l-35.808,50.208c-15.879-4.887-30.77-11.195-44.136-18.912
			c-73.206-42.266-73.206-110.894,0-153.158L640.413,1624.05z"/>
		<path fill="#D8EBFF" d="M869.324,1683.877l86.961-20.676c38.008,40.968,27.082,93.128-32.757,127.677
			c-59.838,34.55-150.185,40.855-221.141,18.912l35.805-50.208c36.728,14.282,87.039,12.042,119.512-6.707
			C890.179,1734.126,894.057,1705.08,869.324,1683.877L869.324,1683.877z"/>
	</g>
	<path fill="#0299FF" d="M652.849,1578.91c73.319-41.099,190.645-40.706,263.162,1.161c13.368,7.719,24.293,16.317,32.758,25.485
		l-86.964,20.673c-3.335-2.881-7.213-5.612-11.617-8.152c-36.188-20.894-94.527-21.286-131.518-1.162L652.849,1578.91
		L652.849,1578.91z"/>
	<path fill="#0087E1" d="M718.708,1571.484l-65.824-38.003v45.419l65.824,38.003V1571.484z"/>
	<path fill="#0087E1" d="M861.806,1580.815l87.003-20.693v45.418l-87.003,20.695V1580.815z"/>
	<path fill="#AA34EF" d="M598.559,1621.335c9.122-12.283,22.369-23.793,39.734-33.819l2.115-1.161l36.048,20.812v-15.567
		l29.774-12.638v45.395h0.003l-2.12,1.164c-36.877,21.289-36.877,55.862,0,77.153c4.404,2.543,9.133,4.781,14.123,6.707
		l-35.808,50.208c-15.878-4.885-30.769-11.193-44.135-18.912c-36.604-21.134-54.905-48.856-54.905-76.579v-42.762H598.559z"/>
	<path fill="#9111DB" d="M718.241,1664.015l-35.808,50.171v45.358l35.808-50.171V1664.015z"/>
	<path fill="#224BF7" d="M891.976,1640.793l64.313-15.289c1.895,2.044,3.672,4.115,5.324,6.212h16.815v45.774h-0.004
		c-0.38,27.421-18.681,54.782-54.894,75.688c-59.642,34.434-149.59,40.816-220.439,19.129l-0.703-0.217v-45.392l27.666-0.527v7.125
		l8.142-11.414c36.726,14.28,87.037,12.042,119.512-6.705c32.472-18.75,36.35-47.798,11.617-69.002v-45.394h22.65V1640.793z"/>
	<path fill="#7EC0FF" d="M652.895,1533.47c73.318-41.101,190.644-40.706,263.162,1.164c13.366,7.716,24.294,16.313,32.756,25.482
		l-86.964,20.674c-3.335-2.882-7.213-5.613-11.615-8.156c-36.187-20.891-94.527-21.28-131.518-1.161L652.895,1533.47
		L652.895,1533.47z"/>
	<path fill="#D892FF" d="M640.413,1540.957l65.824,38.001l-2.12,1.162c-36.876,21.294-36.876,55.864,0,77.153
		c4.405,2.543,9.133,4.783,14.124,6.708l-35.808,50.211c-15.879-4.89-30.77-11.197-44.136-18.915
		c-73.206-42.266-73.206-110.894,0-153.159L640.413,1540.957z"/>
	<path fill="#5B70F9" d="M869.324,1600.797l86.961-20.674c38.008,40.967,27.082,93.128-32.757,127.678
		c-59.838,34.548-150.185,40.854-221.141,18.913l35.805-50.209c36.728,14.28,87.039,12.042,119.512-6.708
		C890.179,1651.048,894.057,1622.002,869.324,1600.797L869.324,1600.797z"/>
</g>
<g>
	<path fill="#D8EBFF" d="M1450.708,954.761l-62.217,35.977l62.23,35.936l62.219-35.975L1450.708,954.761z"/>
	<path fill="#D8EBFF" d="M1348.863,895.96l-62.216,35.975l62.23,35.941l62.218-35.975L1348.863,895.96z"/>
	<path fill="#EBF5FF" d="M1245.353,836.195l-62.218,35.975l62.228,35.938l62.219-35.975L1245.353,836.195z"/>
	<path fill="#C1E1FF" d="M1245.968,681.526l-62.23,35.963l62.23,35.939l62.216-35.963L1245.968,681.526z"/>
	<path fill="#8EC8FF" d="M1183.681,852.06l62.255,35.938V753.416l-62.255-35.952V852.06L1183.681,852.06z"/>
	<path fill="#3694EC" d="M1245.922,887.998l62.268-35.938V717.463l-62.268,35.952V887.998z"/>
	<path fill="#FFFFFF" d="M1245.968,750.039l-62.23-32.551l62.23,35.939l62.216-35.963L1245.968,750.039z"/>
	<path fill="#C1E1FF" d="M1348.413,637.726l-62.216,35.977l62.23,35.938l62.217-35.963L1348.413,637.726z"/>
	<path fill="#8EC8FF" d="M1286.141,911.2l62.256,35.952V709.617l-62.256-35.939V911.2L1286.141,911.2z"/>
	<path fill="#3694EC" d="M1348.382,947.152l62.255-35.952V673.678l-62.255,35.939V947.152z"/>
	<path fill="#C1E1FF" d="M1450.708,603.187l-62.217,35.977l62.23,35.936l62.219-35.975L1450.708,603.187z"/>
	<path fill="#FFFFFF" d="M1348.413,706.254l-62.216-32.55l62.23,35.938l62.217-35.963L1348.413,706.254z"/>
	<path fill="#FFFFFF" d="M1450.708,671.715l-62.217-32.551l62.23,35.936l62.219-35.975L1450.708,671.715z"/>
	<path fill="#8EC8FF" d="M1388.452,970.281l62.253,35.938V675.077l-62.253-35.941V970.281z"/>
	<path fill="#3694EC" d="M1450.694,1006.219l62.256-35.938V639.137l-62.256,35.941V1006.219z"/>
</g>
<g>
	<path fill="#7EC0FF" d="M690.172,1204.545c-1.3-0.77-3.392-0.785-4.674-0.029l-23.44,13.792c-1.281,0.753-1.265,1.991,0.032,2.763
		l2.543,1.506c1.3,0.772,3.395,0.785,4.677,0.029l23.44-13.792c1.28-0.753,1.266-1.991-0.035-2.76L690.172,1204.545z"/>
	<path fill="#7EC0FF" d="M831.593,1292.81c-1.3-0.771-3.395-0.784-4.677-0.031l-23.44,13.794c-1.28,0.753-1.263,1.989,0.034,2.76
		l2.543,1.509c1.3,0.769,3.394,0.782,4.674,0.028l23.44-13.79c1.282-0.756,1.269-1.993-0.032-2.762L831.593,1292.81z"/>
	<path fill="#7EC0FF" d="M755.672,1191.57c-1.296-0.781-3.388-0.812-4.672-0.068l-67.507,39.284
		c-1.286,0.742-1.28,1.981,0.014,2.765l2.527,1.529c1.293,0.778,3.385,0.807,4.67,0.063l67.509-39.279
		c1.284-0.747,1.28-1.986-0.014-2.768L755.672,1191.57z"/>
	<path fill="#7EC0FF" d="M897.794,1281.406c-1.298-0.771-3.394-0.784-4.674-0.028l-67.257,39.78
		c-1.282,0.754-1.266,1.991,0.034,2.762l2.543,1.507c1.3,0.771,3.397,0.782,4.677,0.026l67.259-39.778
		c1.277-0.756,1.263-1.991-0.037-2.763L897.794,1281.406z"/>
	<path fill="#7EC0FF" d="M820.163,1232.127c-1.3-0.769-3.397-0.784-4.676-0.031l-67.271,39.755
		c-1.282,0.753-1.266,1.991,0.034,2.763l2.543,1.506c1.298,0.772,3.394,0.785,4.674,0.029l67.271-39.753
		c1.282-0.753,1.266-1.991-0.035-2.76L820.163,1232.127z"/>
	<path fill="#7EC0FF" d="M827.227,1150c-1.293-0.781-3.386-0.81-4.672-0.066l-60.07,34.823c-1.286,0.747-1.279,1.985,0.012,2.766
		l2.529,1.529c1.291,0.781,3.385,0.81,4.67,0.066l60.072-34.824c1.286-0.745,1.28-1.984-0.013-2.768L827.227,1150z"/>
	<path fill="#7EC0FF" d="M972.189,1235.045c-1.3-0.769-3.397-0.781-4.676-0.026l-59.85,35.267c-1.282,0.756-1.266,1.995,0.035,2.763
		l2.543,1.506c1.3,0.769,3.394,0.781,4.676,0.028l59.85-35.269c1.282-0.754,1.266-1.993-0.034-2.762L972.189,1235.045z"/>
	<path fill="#7EC0FF" d="M894.721,1188.312c-1.3-0.769-3.395-0.784-4.677-0.029l-59.863,35.244c-1.28,0.753-1.263,1.991,0.037,2.76
		l2.541,1.509c1.3,0.772,3.397,0.785,4.676,0.031l59.861-35.242c1.282-0.756,1.266-1.994-0.032-2.766L894.721,1188.312
		L894.721,1188.312z"/>
	<path fill="#7EC0FF" d="M765.842,1204.724c-1.3-0.769-3.395-0.784-4.677-0.03l-61.877,36.441c-1.28,0.756-1.263,1.991,0.034,2.763
		l2.543,1.506c1.3,0.772,3.394,0.785,4.674,0.029l61.88-36.441c1.279-0.753,1.265-1.991-0.035-2.76L765.842,1204.724
		L765.842,1204.724z"/>
	<path fill="#7EC0FF" d="M906.796,1293.242c-1.298-0.769-3.393-0.782-4.674-0.026l-61.878,36.441
		c-1.282,0.753-1.269,1.99,0.032,2.76l2.543,1.509c1.3,0.769,3.395,0.784,4.677,0.028l61.877-36.44
		c1.28-0.756,1.266-1.991-0.034-2.763L906.796,1293.242z"/>
	<path fill="#7EC0FF" d="M831.174,1245.487c-1.3-0.769-3.395-0.782-4.677-0.026l-61.877,36.441c-1.282,0.753-1.266,1.99,0.034,2.76
		l2.54,1.509c1.3,0.769,3.397,0.784,4.677,0.028l61.877-36.44c1.28-0.756,1.267-1.991-0.034-2.763L831.174,1245.487z"/>
	<path fill="#7EC0FF" d="M763.862,1223.686c-1.3-0.769-3.394-0.782-4.676-0.029l-45.072,26.536
		c-1.282,0.754-1.266,1.993,0.034,2.765l2.54,1.506c1.3,0.769,3.397,0.784,4.677,0.031l45.074-26.535
		c1.28-0.756,1.266-1.994-0.037-2.763L763.862,1223.686z"/>
	<path fill="#7EC0FF" d="M906.828,1313.727c-1.3-0.769-3.397-0.782-4.677-0.026l-45.074,26.534c-1.28,0.753-1.263,1.991,0.035,2.76
		l2.543,1.509c1.3,0.772,3.394,0.785,4.674,0.031l45.074-26.536c1.28-0.756,1.266-1.991-0.034-2.763L906.828,1313.727z"/>
	<path fill="#7EC0FF" d="M828.743,1264.691c-1.3-0.769-3.395-0.784-4.677-0.031l-45.072,26.536
		c-1.282,0.756-1.266,1.994,0.034,2.763l2.541,1.509c1.3,0.769,3.394,0.782,4.676,0.029l45.074-26.536
		c1.28-0.754,1.263-1.993-0.034-2.762L828.743,1264.691L828.743,1264.691z"/>
	<path fill="#7EC0FF" d="M863.503,1147.251c-1.3-0.772-3.395-0.785-4.674-0.031l-85.816,50.504
		c-1.281,0.753-1.265,1.991,0.032,2.763l2.543,1.506c1.302,0.769,3.395,0.784,4.677,0.029l85.814-50.503
		c1.28-0.756,1.266-1.991-0.034-2.76L863.503,1147.251z"/>
	<path fill="#7EC0FF" d="M1004.982,1235.485c-1.3-0.772-3.394-0.785-4.676-0.032l-85.815,50.506c-1.28,0.753-1.266,1.991,0.037,2.76
		l2.541,1.509c1.3,0.772,3.394,0.784,4.676,0.029l85.814-50.503c1.28-0.756,1.267-1.994-0.035-2.763L1004.982,1235.485z"/>
	<path fill="#7EC0FF" d="M936.201,1184.071c-1.3-0.771-3.397-0.784-4.676-0.031l-85.815,50.504
		c-1.282,0.756-1.266,1.993,0.034,2.763l2.542,1.506c1.3,0.772,3.395,0.785,4.677,0.032l85.812-50.506
		c1.283-0.754,1.267-1.99-0.034-2.762L936.201,1184.071z"/>
	<path fill="#7EC0FF" d="M891.271,1148.732c-1.302-0.769-3.396-0.783-4.676-0.028l-115.03,67.698
		c-1.28,0.754-1.264,1.993,0.034,2.762l2.542,1.509c1.3,0.769,3.395,0.784,4.677,0.029l115.028-67.698
		c1.28-0.754,1.266-1.991-0.035-2.763L891.271,1148.732L891.271,1148.732z"/>
	<path fill="#7EC0FF" d="M1032.584,1236.568c-1.3-0.769-3.396-0.784-4.675-0.031l-115.027,67.699
		c-1.282,0.753-1.266,1.991,0.032,2.763l2.542,1.509c1.3,0.769,3.395,0.782,4.675,0.028l115.03-67.698
		c1.28-0.754,1.266-1.993-0.034-2.762L1032.584,1236.568L1032.584,1236.568z"/>
	<path fill="#7EC0FF" d="M956.136,1189.735c-1.298-0.769-3.394-0.782-4.677-0.028l-115.025,67.698
		c-1.282,0.756-1.268,1.993,0.032,2.763l2.543,1.506c1.299,0.772,3.394,0.785,4.676,0.032l115.028-67.699
		c1.282-0.753,1.266-1.991-0.034-2.763L956.136,1189.735L956.136,1189.735z"/>
</g>
<g id="cone">
	<path fill="#CCE5FF" d="M989.261,1292.59c0,23.47,32.673,42.496,72.976,42.496c40.301,0,72.975-19.026,72.975-42.496
		c0-23.47-32.674-42.496-72.975-42.496C1021.933,1250.094,989.261,1269.12,989.261,1292.59z"/>
	<g>
		<path fill="#5BAFFF" d="M1123.269,1253.385c-2.691-2.411-5.832-4.69-9.426-6.806c-28.486-16.757-74.739-16.757-103.223,0
			c-3.595,2.116-6.736,4.395-9.426,6.806h-11.938v23.872h0.003c0.132,10.884,7.254,21.751,21.361,30.052
			c28.484,16.758,74.737,16.758,103.223,0c14.503-8.534,21.622-19.778,21.354-30.969v-22.955H1123.269L1123.269,1253.385z"/>
		<path fill="#C9E4FE" d="M1113.848,1222.412c-28.484-16.759-74.736-16.759-103.223,0c-28.485,16.757-28.485,43.969,0,60.728
			c28.487,16.757,74.739,16.757,103.223,0C1142.332,1266.382,1142.332,1239.17,1113.848,1222.412z"/>
	</g>
	<g>
		<path fill="#5BAFFF" d="M1117.613,1238.508c-2.424-2.169-5.255-4.225-8.497-6.131c-25.677-15.106-67.369-15.106-93.046,0
			c-3.242,1.906-6.073,3.962-8.497,6.131H996.81v10.656h0.005c0.116,9.813,6.538,19.606,19.255,27.089
			c25.677,15.106,67.369,15.106,93.046,0c13.076-7.691,19.493-17.827,19.254-27.916v-9.828H1117.613L1117.613,1238.508z"/>
		<path fill="#C9E4FE" d="M1109.108,1210.592c-25.677-15.107-67.37-15.107-93.046,0c-25.679,15.105-25.679,39.634,0,54.739
			c25.676,15.108,67.369,15.108,93.046,0C1134.786,1250.226,1134.786,1225.697,1109.108,1210.592z"/>
	</g>
	<path fill="#6DB8FF" d="M1014.464,1228.243c-4.494,9.749-0.241,20.605,12.76,28.255c19.321,11.366,50.695,11.366,70.019,0
		c12.999-7.65,17.253-18.507,12.761-28.255l-31.882-111.892h-31.779L1014.464,1228.243z"/>
	<g>
		<defs>
			<path id="SVGID_5_" d="M1014.464,1228.243c-4.494,9.749-0.241,20.605,12.76,28.255c19.321,11.366,50.695,11.366,70.019,0
				c12.999-7.65,17.253-18.507,12.761-28.255l-31.882-111.892h-31.779L1014.464,1228.243z"/>
		</defs>
		<clipPath id="SVGID_6_">
			<use xlink:href="#SVGID_5_"  overflow="visible"/>
		</clipPath>
		<g clip-path="url(#SVGID_6_)">
			<path fill="#53ABFF" d="M1062.227,1092.928c23.355,0,42.289,19.293,42.289,43.09c0,23.799-18.934,43.09-42.289,43.09
				c-23.352,0-42.285-19.292-42.285-43.09C1019.942,1112.221,1038.874,1092.928,1062.227,1092.928z"/>
		</g>
	</g>
	<path fill="#FD944D" d="M1073.494,1109.731c-6.214-3.657-16.298-3.657-22.512,0c-6.212,3.653-6.212,9.589,0,13.241
		c6.213,3.656,16.298,3.656,22.512,0C1079.706,1119.32,1079.706,1113.384,1073.494,1109.731z"/>
	<path fill="#B3D9FE" d="M1062.227,1065.911c27.341,0,49.502,22.582,49.502,50.44c0,27.858-22.161,50.441-49.502,50.441
		c-27.338,0-49.498-22.583-49.498-50.441C1012.729,1088.493,1034.888,1065.911,1062.227,1065.911z"/>
</g>
<g>
	<g>
		<path fill="#768FDF" d="M1212.799,339.969l-27.994-15.393l-2.815,34.455l27.996,15.393L1212.799,339.969z"/>
		<path fill="#F5F5FE" d="M1105.298,349.627c-8.785-4.772-15.161-14.904-17.038-29.266l-5.108-39.029
			c-3.758-28.724,11.878-63.553,34.9-77.73l195.083-119.627c11.391-7.012,22.465-7.668,31.207-3.058v-0.004l33.807,18.364
			l6.262,47.836l-19.308-10.488l1.666,12.734c3.758,28.724-11.88,63.555-34.902,77.731l-195.085,119.628
			c-0.142,0.087-0.285,0.174-0.429,0.261l2.75,21.01L1105.298,349.627L1105.298,349.627z"/>
		<path fill="#CDD6F3" d="M1129.496,274.486l9.289,70.992l-2.003,1.241c-0.142,0.087-0.286,0.174-0.43,0.261l2.751,21.01
			l-33.808-18.363c-7.546-4.099-13.315-12.157-15.981-23.456l-6.673-50.986c-0.298-8.038,0.788-16.391,3.01-24.515l43.843,23.816
			H1129.496z"/>
		<path fill="#E9E9FC" d="M1116.954,299.695c-3.758-28.724,11.88-63.555,34.901-77.731l195.086-119.626
			c23.021-14.177,44.765-2.367,48.523,26.357l5.107,39.03c3.758,28.723-11.878,63.552-34.902,77.728L1248.55,317.95l-38.873,56.919
			l3.117-34.901l-42.207,25.112c-23.024,14.176-44.765,2.367-48.526-26.357L1116.954,299.695z"/>
		<path fill="#768FDF" d="M1156.273,270.354c-0.547-4.167,1.723-9.224,5.063-11.279l73.314-44.449
			c3.34-2.057,6.497-0.342,7.041,3.825l0.742,5.665c0.544,4.169-1.724,9.223-5.066,11.279l-73.312,44.448
			c-3.342,2.057-6.497,0.343-7.041-3.825L1156.273,270.354z"/>
		<path fill="#768FDF" d="M1163.278,306.119c-0.544-4.17,1.724-9.224,5.066-11.282l166.263-101.833
			c3.343-2.057,6.497-0.343,7.043,3.824l0.741,5.665c0.547,4.17-1.724,9.224-5.064,11.281L1171.06,315.607
			c-3.338,2.058-6.495,0.343-7.041-3.824L1163.278,306.119z"/>
	</g>
</g>
<g>
	<g>
		<path fill="#F5F5FE" d="M1153.019,575.83c-8.84-4.802-15.256-15.002-17.149-29.457l-5.142-39.283
			c-3.783-28.912,11.956-63.969,35.128-78.238l196.885-120.737c11.463-7.059,22.611-7.715,31.408-3.079v-0.001l34.027,18.482
			l6.301,48.15l-19.434-10.557l1.679,12.819c3.783,28.911-11.959,63.967-35.131,78.236l-93.312,57.463l15.648,22.922l-51.631-0.763
			l-67.588,41.114c-0.144,0.09-0.286,0.177-0.43,0.263l2.768,21.149L1153.019,575.83L1153.019,575.83z"/>
		<path fill="#CDD6F3" d="M1177.381,500.199l9.351,71.453l-2.016,1.247c-0.145,0.09-0.289,0.177-0.433,0.263l2.768,21.149
			l-34.027-18.482c-7.596-4.127-13.403-12.237-16.088-23.609l-6.715-51.318c-0.298-8.092,0.794-16.498,3.03-24.675L1177.381,500.199
			L1177.381,500.199z"/>
		<path fill="#E9E9FC" d="M1164.763,525.571c-3.783-28.911,11.956-63.967,35.128-78.237l196.885-120.738
			c23.172-14.269,45.056-2.382,48.839,26.53l5.142,39.284c3.783,28.911-11.956,63.967-35.128,78.237l-11.386,7.009l15.648,22.922
			l-51.634-0.762l-149.513,91.567c-23.172,14.267-45.055,2.38-48.839-26.528L1164.763,525.571L1164.763,525.571z"/>
		<path fill="#768FDF" d="M1217.342,489.768c-0.546-4.196,1.737-9.283,5.101-11.355l74.319-45.066
			c3.361-2.072,6.538-0.347,7.087,3.849l0.745,5.701c0.55,4.196-1.734,9.282-5.1,11.355l-74.316,45.067
			c-3.364,2.07-6.538,0.345-7.087-3.851L1217.342,489.768z"/>
		<path fill="#768FDF" d="M1217.342,529.838c-0.546-4.196,1.737-9.284,5.101-11.353l167.874-102.827
			c3.364-2.071,6.538-0.347,7.088,3.849l0.745,5.701c0.55,4.196-1.735,9.282-5.098,11.355l-167.874,102.826
			c-3.364,2.071-6.538,0.348-7.087-3.849L1217.342,529.838z"/>
	</g>
</g>
<g>
	<g>
		<path fill="#EFB185" d="M1552.165,916.747c0,0-19.593,9.758-29.726,7.497c-10.139-2.271-23.816-9.353-18.134-12.608
			c5.676-3.248,21.084-2.122,21.872-6.322c0.778-4.176-8.898-3.255-4.3-5.517c4.598-2.303,13.428-3.106,29.974,5.592
			C1551.85,905.388,1556.671,910.376,1552.165,916.747z"/>

			<linearGradient id="SVGID_7_" gradientUnits="userSpaceOnUse" x1="36.5608" y1="1541.5597" x2="38.9056" y2="1541.5597" gradientTransform="matrix(32.6573 86.7315 -86.7315 32.6573 134167.375 -52799.3242)">
			<stop  offset="0" style="stop-color:#EB4800"/>
			<stop  offset="0.58" style="stop-color:#B31A00"/>
			<stop  offset="1" style="stop-color:#990400"/>
		</linearGradient>
		<path fill="url(#SVGID_7_)" d="M1681.299,736.699c10.653-9.03,23.584-7.076,36.113-3.017c10.833,3.511,16.609,9.843,21.753,21.856
			c9.969,23.292,7.681,41.052,9.345,47.851c6.66,27.216,43.346,51.449,2.649,113.583c-2.956,4.514-101.968-35.991-103.537-64.863
			c-1.777-32.726,13.012-45.474,16.935-48.979c10.202-9.12,31.554-16.33,19.062-29.233c-0.638-0.662-11.011-20.751-7.895-12.48
			c0.414,1.101,3.14,10.848,2.097,10.491c-6.214-2.204-10.441-5.21-10.441-5.21c-2.543-10.829,6.373-23.58,13.921-30V736.699z"/>
		<path fill="#AED7FF" d="M1660.492,815.847c0,0,8.441,2.966,9.103,12.927c0,0-2.385,23.71-21.242,58.38
			c0,0-17.694,34.158-26.857,35.872c-9.154,1.682-75.246-2.866-75.246-2.866s3.974-6.794-0.167-18.665
			c0,0,57.999-6.329,62.274-10.795C1612.645,886.236,1647.849,819.27,1660.492,815.847L1660.492,815.847z"/>
		<path fill="#78BCFF" d="M1621.485,923.026c-7.189,1.325-57.237-1.514-75.245-2.866c0.826-1.768,1.042-2.782,1.042-2.782
			s63.445-7.325,67.729-11.791c4.289-4.466,33.003-70.666,45.653-74.062c0,0,4.449-1.651,8.6-0.449
			c-1.101,6.728-5.5,27.73-20.917,56.077C1648.346,887.154,1630.648,921.311,1621.485,923.026L1621.485,923.026z"/>
		<path fill="#EFB185" d="M1651.356,947.299c0,0-20.811,102.033-9.388,158.598c0,0,5.26,44.611,7.728,56.88
			c2.52,12.261,2.122,78.992,2.122,78.992s17.672,8.773,27.122,0c0,0,13.222-69.448-0.066-113.215c0,0,15.651-83.624,16.005-110.855
			c0.342-27.247,3.777-50.675,3.777-50.675L1651.356,947.299L1651.356,947.299z"/>
		<path fill="#EFB185" d="M1651.835,1229.769c0,0-1.454,12.852-9.837,20.219c-6.494,5.707-22.112,19.898-20.388,26.773
			c1.73,6.885,19.706,7.723,31.114-3.521c11.448-11.248,14.481-12.964,19.305-13.934c4.835-0.97,12.484-10.975,7.612-21.589
			c0,0-4.11,2.366-7.894,2.049c-3.785-0.312-9.763,0.129-11.181-6.454C1659.843,1229.966,1655.103,1229.549,1651.835,1229.769
			L1651.835,1229.769z"/>
		<path fill="#EFB185" d="M1736.205,980.859c0,0,20.114,28.78,10.406,87.568l-4.31,70.21c0,0,13.322,22.484,3.744,90.723
			l-9.176,41.032c0,0-11.376,8.334-23.944-8.655c0,0,0.92-100.954-3.827-116.504c-3.463-11.36-19.268-58.797-25.491-104.633
			c-2.27-16.719-28.125-44.373-26.775-58.854L1736.205,980.859L1736.205,980.859z"/>
		<path fill="#EFB185" d="M1712.965,1254.275c0,0,0.593,12.801-4.756,19.547c-5.37,6.776-24.227,30.731-22.364,37.573
			c1.895,6.841,19.873,7.183,31.032-4.343c11.166-11.546,9.342-15.591,13.811-20.366c3.369-3.601,11.138-7.875,7.544-22.415
			c0,0-6.78,3.724-10.676,1.108c-1.3-0.872-1.033-7.757-2.474-8.627C1720.595,1254.044,1715.965,1254.069,1712.965,1254.275
			L1712.965,1254.275z"/>

			<linearGradient id="SVGID_8_" gradientUnits="userSpaceOnUse" x1="41.04" y1="1544.6737" x2="43.3835" y2="1544.6737" gradientTransform="matrix(-27.3023 47.0757 -47.0757 -27.3023 75528.0703 41435.0664)">
			<stop  offset="0" style="stop-color:#E57E35"/>
			<stop  offset="1" style="stop-color:#AE4800"/>
		</linearGradient>
		<path fill="url(#SVGID_8_)" d="M1651.835,1229.769c0,0-1.454,12.852-9.837,20.219c-3.248,2.854-23.04,22.199-26.086,25.223
			c-5.035,5.001,26.471,13.125,40.863-3.214c6.711-7.621,7.219-8.926,10.157-10.885c3.501-2.338,5.034,7.343,8.785,6.56
			c2.719-0.565,2.644-12.315,4.414-17.08c1.378-3.704,1.644-8.231-0.489-12.874c0,0-4.11,2.366-7.894,2.049
			c-3.785-0.312-9.763,0.129-11.181-6.454C1659.846,1229.966,1655.103,1229.549,1651.835,1229.769L1651.835,1229.769z"/>

			<linearGradient id="SVGID_9_" gradientUnits="userSpaceOnUse" x1="41.0397" y1="1543.4147" x2="43.3834" y2="1543.4147" gradientTransform="matrix(-27.3023 47.0757 -47.0757 -27.3023 75528.0703 41435.0664)">
			<stop  offset="0" style="stop-color:#E57E35"/>
			<stop  offset="1" style="stop-color:#AE4800"/>
		</linearGradient>
		<path fill="url(#SVGID_9_)" d="M1712.965,1254.275c0,0,0.593,12.801-4.756,19.547c-5.37,6.776-24.227,30.731-22.364,37.573
			c1.895,6.841,19.873,7.183,31.032-4.343c11.166-11.546,9.342-15.591,13.811-20.366c1.158-1.239,0.671,5.417,6.381,2.254
			c2.072-1.148,2.093-10.613,2.093-15.04c-0.003-2.898,0.195-5.085-0.929-9.628c0,0-6.78,3.724-10.676,1.108
			c-1.3-0.872-1.033-7.757-2.474-8.627C1720.595,1254.044,1715.965,1254.069,1712.965,1254.275L1712.965,1254.275z"/>
		<path fill="#9100E6" d="M1749.511,1126.845c-64.24,27.938-111.971-13.354-112.195-17.641
			c-2.621-50.252-1.999-84.964,0.016-108.921c4.113-48.86,38.927-21.238,38.927-21.238s-0.261,0.883-0.728,2.49l60.674-0.677
			c0,0,23.014,29.485,13.306,88.271C1749.511,1069.13,1747.304,1098.37,1749.511,1126.845z"/>
		<path fill="#8000CB" d="M1749.511,1126.845c-14.053,6.112-27.315,8.912-39.463,9.507c7.104-55.491,2.867-156.837,2.401-155.227
			l23.756-0.266c0,0,23.014,29.485,13.306,88.271C1749.511,1069.13,1747.304,1098.37,1749.511,1126.845z"/>
		<path fill="#AED7FF" d="M1751.281,857.529c0,0-13.1-22.053-36.161-34.91c-31.277-17.441-55.074-9.513-56.201-5.123
			c-10.914,42.599-30.471,69.629-20.379,96.054c13.514,35.38,1.06,64.497-2.514,79.019c-4.143,16.849,39.928,33.995,75.844,37.232
			c8.288,0.746,9.706-0.497,17.323-1.234c4.987-0.487,14.481-30.266,10.117-47.706c-4.367-17.413-17.431-46.361-9.254-78.479
			C1738.221,870.263,1756.732,873.875,1751.281,857.529L1751.281,857.529z"/>
		<path fill="#78BCFF" d="M1751.731,859.012c4.876,18.555,5.949,32.621-2.217,64.739c-8.177,32.121,0.991,66.523,2.76,84.389
			c1.672,16.867-23.719,22.16-37.396,21.702c-3.572-32.061-6.936-124.767,15.817-153.06
			C1737.198,868.697,1751.731,859.012,1751.731,859.012L1751.731,859.012z"/>
		<path fill="#E8A476" d="M1670.902,799.462c0,0,17.262,14.408,0.757,33.442c-3.901,4.502-3.823,20.885,24.56,15.536
			c0,0,30.014-12.395,22.011-21.799c-5.295-6.262-10.239-15.092,0.563-44.321L1670.902,799.462z"/>
		<path fill="#DB9669" d="M1718.234,826.64c0.885,1.021,1.249,2.024,1.249,3.008c-26.958,3.256-43.767-16.859-43.767-16.859
			l36.802-27.828c0,0,1.655,1.312,4.124,3.498C1708.732,812.807,1713.328,820.851,1718.234,826.64L1718.234,826.64z"/>
		<path fill="#F1B287" d="M1679.59,746.839c0,0-10.675,2.156-12.654,24.325c-0.241,2.445-0.776,42.332,13.356,46.061
			c10.24,2.683,29.444-2.264,39.975-26.505C1730.751,766.497,1711.988,732.796,1679.59,746.839L1679.59,746.839z"/>
		<path fill="#E8A476" d="M1679.59,746.839c0,0-10.675,2.156-12.654,24.325c-0.241,2.445,1.551,10.088,15.686,13.817
			c10.237,2.682,33.254,7.886,35.614-1.118C1724.928,758.332,1711.988,732.796,1679.59,746.839z"/>
		<path fill="#F1B287" d="M1707.267,793.994c0,0,4.871-11.981,11.637-7.689c2.115,1.376,4.326,4.093,0.473,10.166
			c-3.886,6.045-11.332,11.242-16.843,10.122L1707.267,793.994z"/>

			<linearGradient id="SVGID_10_" gradientUnits="userSpaceOnUse" x1="36.5608" y1="1541.2965" x2="38.9059" y2="1541.2965" gradientTransform="matrix(32.6573 86.7315 -86.7315 32.6573 134167.375 -52799.3242)">
			<stop  offset="0" style="stop-color:#EB4800"/>
			<stop  offset="0.58" style="stop-color:#B31A00"/>
			<stop  offset="1" style="stop-color:#990400"/>
		</linearGradient>
		<path fill="url(#SVGID_10_)" d="M1681.299,736.699c10.653-9.03,23.584-7.076,36.113-3.017
			c10.833,3.511,21.406,14.986,21.721,25.649c0.329,10.156-1.893,22.385-9.005,31.887c-3.233,4.317-16.333,30.3-17.343,24.264
			c-2.703-16.171,5.21-13.996,0.417-26.766c-0.973-2.587-4.539,4.13-6.526,3.319c-34.636-7.563-39.297-25.337-39.297-25.337
			c-2.543-10.829,6.37-23.58,13.921-30V736.699z"/>
		<path fill="#F1B287" d="M1710.956,784.025c-3.983,3.623-5.45,8.492-3.271,10.871c2.185,2.346,7.131,1.341,11.134-2.262
			c3.942-3.646,5.415-8.499,3.255-10.861C1719.904,779.362,1714.907,780.383,1710.956,784.025z"/>
	</g>
	<path fill="#EFB185" d="M1644.56,948.061c0,0-21.282,5.029-30.636,0.515c-9.344-4.484-21.059-14.483-14.806-16.353
		c6.297-1.881,21.035,2.699,22.751-1.219c1.732-3.917-7.929-5.178-2.944-6.355c4.991-1.199,13.77,0.026,27.937,12.279
		C1646.863,936.927,1650.451,942.867,1644.56,948.061L1644.56,948.061z"/>
	<path fill="#B6DBFF" d="M1745.475,852.657c0,0-15.4-6.487-24.546,17.15c-9.172,23.644-24.59,63.201-24.59,63.201l-3.859,5.393
		l-52.24-7.037c0,0,7.798,10.974-3.722,18.171c0,0,63.219,31.175,81.96,11.633C1718.479,961.168,1771.82,860.088,1745.475,852.657z"
		/>
	<path fill="#D9ECFF" d="M1640.237,931.364l52.242,7.037l3.859-5.393c0,0,15.419-39.557,24.588-63.201
		c7.747-20.016,19.935-18.443,23.505-17.491c-1.648,30.539-34.24,92.281-34.24,92.281c-13.042,13.588-47.42,3.784-67.618-3.557
		C1642.971,935.698,1640.237,931.364,1640.237,931.364z"/>
</g>
<g>
	<path fill="#ECA16D" d="M1872.18,1223.13c-8.459-7.361-16.047-5.117-16.047-5.117c-4.736,4.752-5.17,7.744-8.93,11.846
		c-5.783,6.31-2.953,7.863-5.219,12.284c-1.244,2.435,2.981,2.329,4.731-0.81c1.52-2.721,3.766-4.2,3.883-2.536
		c0.21,3.328-1.451,15.719,2.38,18.724c1.762,1.381,9.307,0.057,13.137-5.445C1871.952,1243.687,1871.678,1229.572,1872.18,1223.13z
		"/>
	<path fill="#68B5FF" d="M1860.854,1050.577c-5.897,11.835,11.204,47.862,17.477,85.21c0,0-24.983,72.854-25.233,85.123
		c2.904,2.923,14.099,6.141,18.965,3.659c8.427-15.836,26.418-48.123,40.582-82.122c2.097-30.621-9.291-56.577-13.938-67.155
		c-5.935-13.512-8.958-22.87-21.434-30.179c-2.372-1.389-5.304-1.517-8.03-1.854
		C1868.178,1043.123,1863.621,1045.016,1860.854,1050.577L1860.854,1050.577z"/>
	<g>
		<path fill="#3D96DC" d="M1817.917,1507.097c0,0-11.428,2.633-8.481,9.62c2.929,7.016,20.613,22.723,22.444,27.162
			c1.864,4.408,12.323,20.432,15.991,18.969c3.701-1.485,27.313,3.685,16.689-31.786
			C1859.382,1513.773,1834.094,1506.343,1817.917,1507.097L1817.917,1507.097z"/>
		<path fill="#3D96DC" d="M1801.325,1591.812c0,0-8.18,13.109-22.768,8.682c-14.589-4.441-7.633-10.664-38.981-20.877
			c-31.408-10.236-22.949-30.046-20.328-32.797c2.565-2.699,24.133,3.076,31.03,5.262c6.878,2.178,19.844,6.437,19.844,6.437
			l31.204,10.65V1591.812z"/>
		<path fill="#3400CC" d="M1867.649,1218.005c0,0-4.187,144.25-4.187,157.965c0,13.717,14.066,103.866,4.849,151.029
			c0,0-20.889,22.082-44.348-4.565c0,0-2.611-46.971-6.144-91.796c-2.464-31.246-5.375-61.447-8.168-73.979
			c-6.784-30.524-4.515-123.925-4.515-123.925L1867.649,1218.005L1867.649,1218.005z"/>
		<path fill="#3400CC" d="M1821.069,1235.31c0,0-23.78,118.491-22.562,196.866c0,0,6.337,114.464,2.699,136.776
			c0,0-49.917,12.396-54.933-11.114c0,0,1.294-136.205,0-164.671c-1.215-28.467-4.163-107.844,7.113-153.655
			C1764.623,1193.712,1821.069,1235.31,1821.069,1235.31L1821.069,1235.31z"/>

			<linearGradient id="SVGID_11_" gradientUnits="userSpaceOnUse" x1="302.7881" y1="1531.3263" x2="305.1321" y2="1531.3263" gradientTransform="matrix(-0.2005 -14.8392 50.5407 -0.683 -75603.5781 127.2192)">
			<stop  offset="0" style="stop-color:#260096"/>
			<stop  offset="0.57" style="stop-color:#8800DF"/>
			<stop  offset="1" style="stop-color:#B300FF"/>
		</linearGradient>
		<path fill="url(#SVGID_11_)" d="M1837.285,1301.995c-0.578,25.096-0.041,53.024,3.579,74.15
			c7.741,45.121,2.766,132.953,6.538,158.165c14.818,0,20.915-7.305,20.915-7.305c8.619-65.499-4.849-135.762-4.849-149.48
			c0-13.073,18.4-92.253,4.188-158.624l-26.792,20.617c0,0-0.43,4.4-0.999,11.784l-51.397,14.041c0,0-22.198,58.339-18.809,145.834
			c2.633,67.723,3.714,134.311,4.077,161.036c13.784,0.114,27.47-3.255,27.47-3.255c7.726-66.318-2.699-136.773-2.699-136.773
			c-0.938-28.856,1.283-49.025,5.246-64.052C1811.591,1338.442,1826.619,1321.162,1837.285,1301.995L1837.285,1301.995z"/>
		<path fill="#87C5FF" d="M1877.292,1043.881c22.186,10.168,21.575,54.754,12.499,83.187
			c-11.461,35.91-16.507,130.064-13.881,139.214c0,0-13.498,33.75-73.424,37.83c-18.323,1.249-59.509-8.644-55.724-45.993
			c8.014-79.134,9.288-113.553,11.323-127.487c3.864-26.459,6.874-39.108,42.289-57.327
			C1835.794,1055.074,1864.26,1037.905,1877.292,1043.881z"/>
		<path fill="#ECA16D" d="M1646.12,1109.94c6.73-8.969,3.942-16.375,3.942-16.375c-5.082-4.379-8.096-4.596-12.461-8.051
			c-6.714-5.311-8.058-2.376-12.632-4.315c-2.517-1.067-2.104,3.141,1.152,4.661c2.825,1.318,4.461,3.449,2.809,3.688
			c-3.303,0.451-15.78-0.31-18.502,3.733c-1.247,1.856,0.615,9.284,6.384,12.706
			C1625.602,1111.203,1639.659,1109.907,1646.12,1109.94z"/>
		<path fill="#A4D3FF" d="M1817.406,1086.153c-25.146-22.6-46.924,14.641-83.72,23.6c0,0-74.472-19.644-86.728-19.006
			c-2.703,3.108-5.104,14.508-2.273,19.18c16.404,7.255,49.908,22.862,84.844,34.532c30.691-0.125,74.608-4.389,89.619-19.831
			C1828.028,1115.498,1830.745,1098.139,1817.406,1086.153z"/>
		<path fill="#EFB185" d="M1852.136,1025.122c0,0-2.6,18.638,3.573,30.44c5.61,10.722-38.57,19.524-39.423,9.671
			c-0.07-1.043,8.672-16.959-1.566-36.222C1809.363,1018.939,1852.136,1025.122,1852.136,1025.122L1852.136,1025.122z"/>
		<path fill="#DD9569" d="M1855.482,1056.215c-4.582-8.811-4.348-21.309-3.895-27.169l-32.451,15.289l0.01,0.094
			c1.174,0.297,22.735,6.238,27.125,21.917C1852.944,1063.764,1857.509,1060.12,1855.482,1056.215z"/>

			<linearGradient id="SVGID_12_" gradientUnits="userSpaceOnUse" x1="38.8609" y1="1541.9497" x2="41.2069" y2="1541.9497" gradientTransform="matrix(-29.1183 64.8762 -142.2374 -63.8405 222312.2031 96930.4297)">
			<stop  offset="0" style="stop-color:#D0E8FF"/>
			<stop  offset="1" style="stop-color:#40A2FF"/>
		</linearGradient>
		<path fill="url(#SVGID_12_)" d="M1818.862,1059.468l-14.558,11.793c0,0,44.372,13.645,57.833-7.941
			c1.924-3.069-0.122-13.481-7.845-15.558C1854.292,1047.761,1852.424,1065.511,1818.862,1059.468z"/>
	</g>
	<path fill="#EFB185" d="M1808.017,974.847c0,0-7.597,17.782-6.467,33.263c0.351,4.722-1.269,6.084-2.634,9.518
		c-2.771,6.977,1.359,5.034,2.016,10.33c0.396,3.163-1.28,15.085,3.766,18.472c5.916,3.978,15.573,7.076,29.987,2.145
		c17.432-5.997,36.159-29.453,29.206-51.034C1856.86,975.961,1834.428,957.904,1808.017,974.847L1808.017,974.847z"/>
	<path fill="#E6A376" d="M1862.638,1020.693c-6.56-19.4-23.336-42.874-23.153-44.09c0.11-0.753-5.547-4.449-11.967-8.396
		c-6.12,0.211-12.647,2.253-19.503,6.64c0,0-2.041,4.739-3.833,11.48c4.037,4.684,12.333,10.091,13.557,14.048
		c2.768,9.298,0.8,23.243-2.05,29.38c-2.862,6.116,8.057,15.38,5.637,20.807l-0.091,0.744c3.974-0.219,8.453-1.039,13.451-2.731
		C1845.86,1044.721,1857.468,1033.747,1862.638,1020.693L1862.638,1020.693z"/>
	<path fill="#414141" d="M1806.472,975.677c0,0-2.286,8.039,8.76,14.726c8.667,5.271,7.911,19.292,7.415,22.005
		c-0.478,2.713-3.396,15.048-2.338,16.657c2.06,3.072,9.383-6.29,12.741-5.582c8.573,1.831,5.059,9.797-2.935,18.067
		c-8.49,8.792,13.329,12.888,23.615,5.702c5.489-3.809,7.479-6.116,14.844-20.034c10.681-20.293,11.683-44.918-12.287-58.55
		C1832.334,955.061,1813.84,965.32,1806.472,975.677z"/>
	<path fill="#292929" d="M1833.401,1011.267c20.24,8.735,40.747,8.975,42.365,2.774c3.554-13.641,1.357-30.143-9.825-40.31
		c-2.982-2.713-6.448-4.974-10.142-6.599c-7.568-3.328-16.862-5.263-25.232-5.105c-12.486,0.238-22.562,6.082-29.509,16.388
		c-2.984,4.427-4.789,9.181-0.461,13.132c6.968,6.359,15.955,12.45,32.8,19.72H1833.401z"/>
</g>
<g>
	<path fill="#EBF5FF" d="M1597.258,1649.134l165.117,22.277l0.197,0.158c7.76,6.285,5.289,22.187-5.521,35.514
		c-10.798,13.328-25.85,19.023-33.672,12.682l-0.126-0.11l-0.006,0.007l-183.766-24.795
		C1559.116,1680.353,1578.396,1665.107,1597.258,1649.134z"/>
	<path fill="#D8EBFF" d="M1597.258,1649.134c-18.898,15.943-38.183,31.204-57.777,45.735l-85.142-11.489l39.131-48.25
		L1597.258,1649.134z"/>
	<path fill="#D8EBFF" d="M1107.849,1636.982c0,62.987,87.689,114.052,195.857,114.052c108.16,0,195.849-51.065,195.849-114.052
		c0-62.988-87.69-114.053-195.849-114.053C1195.538,1522.929,1107.849,1573.994,1107.849,1636.982z"/>
	<path fill="#CAD9FF" d="M1499.554,1589.455h-391.706v20.291c0,62.988,87.689,114.05,195.857,114.05
		c108.16,0,195.849-51.062,195.849-114.05l-0.073-1.575h0.073V1589.455z"/>
	<path fill="#EAEAFC" d="M1107.849,1590.236c0,62.988,87.689,114.05,195.857,114.05c108.16,0,195.849-51.062,195.849-114.05
		c0-62.987-87.69-114.052-195.849-114.052C1195.538,1476.184,1107.849,1527.249,1107.849,1590.236z"/>
	<path fill="#FFFFFF" d="M1303.693,1703.828c-106.986,0-193.878-49.967-195.754-112.012l-0.095,2.038
		c0,62.991,87.688,114.053,195.849,114.053c108.17,0,195.859-51.062,195.859-114.053l-0.088-2.038
		C1497.588,1653.861,1410.688,1703.828,1303.693,1703.828z"/>
	<path fill="#CAD9FF" d="M1488.511,1535.301h-368.895v49.668c0,59.328,82.578,107.414,184.445,107.414
		c101.866,0,184.45-48.086,184.45-107.414l-0.062-1.481h0.062V1535.301z"/>
	<path fill="#EAEAFC" d="M1119.609,1536.036c0,59.318,82.578,107.411,184.444,107.411c101.867,0,184.453-48.093,184.453-107.411
		c0-59.328-82.585-107.413-184.453-107.413C1202.187,1428.624,1119.609,1476.708,1119.609,1536.036z"/>
	<path fill="#CACAF8" d="M1209.843,1524.154c-6.166,32.523,34.105,67.463,89.942,78.048c55.853,10.587,106.112-7.191,112.279-39.714
		c6.169-32.52-34.105-67.461-89.95-78.048C1266.272,1473.854,1216.011,1491.64,1209.843,1524.154z"/>
	<path fill="#FFFFFF" d="M1304.053,1643.013c-100.756,0-182.592-47.054-184.363-105.483l-0.081,1.914
		c0,59.325,82.578,107.413,184.444,107.413c101.867,0,184.453-48.087,184.453-107.413l-0.088-1.914
		C1486.654,1595.959,1404.816,1643.013,1304.053,1643.013z"/>
	<path fill="#F8FCFF" d="M1446.208,1607.908l-3.064-1.763c12.058-8.067,22.087-17.189,29.608-27.089l2.016,1.158
		C1467.648,1590.312,1457.975,1599.628,1446.208,1607.908z"/>
	<path fill="#2C2982" d="M1467.69,1450.828l-39.128,48.25l294.686,220.569l0.007-0.006l0.126,0.111
		c7.822,6.338,22.874,0.643,33.672-12.684c10.807-13.325,13.278-29.228,5.521-35.515l-0.132-0.1l-0.065-0.057L1467.69,1450.828
		L1467.69,1450.828z"/>
	<path fill="#9292F1" d="M1419.747,1559.948l-157.364-125.906l-18.903,23.644l-0.506,0.631
		c-20.249,25.3-1.432,73.999,42.013,108.767c43.456,34.767,95.092,42.438,115.336,17.132l0.478-0.654l0.026,0.022L1419.747,1559.948
		z"/>
	<path fill="#B7C4EE" d="M1262.139,1434.356c-20.244,25.309-1.441,73.999,42.021,108.767
		c43.447,34.767,95.086,42.438,115.327,17.138c20.252-25.307,1.435-73.998-42.013-108.766
		C1334.021,1416.728,1282.382,1409.057,1262.139,1434.356z"/>
	<path fill="#FFFFFF" d="M1304.294,1542.938c-42.976-34.39-61.823-82.39-42.637-107.916l-0.7,0.788
		c-20.235,25.306-1.435,73.998,42.029,108.765c43.447,34.768,95.083,42.439,115.327,17.14l0.624-0.851
		C1398.244,1585.186,1347.276,1577.323,1304.294,1542.938L1304.294,1542.938z"/>
	<path fill="#2C2982" d="M1419.236,1524.861l-122.519-98.016l-14.712,18.4l-0.404,0.495c-15.754,19.7-1.109,57.609,32.719,84.681
		c33.831,27.064,74.031,33.034,89.791,13.334l0.371-0.503l0.022,0.016l14.731-18.408V1524.861z"/>
	<path fill="#FCDE11" d="M1296.522,1427.094c-15.767,19.7-1.108,57.61,32.719,84.68c33.83,27.064,74.033,33.034,89.793,13.337
		c15.761-19.7,1.111-57.61-32.72-84.672C1352.494,1413.366,1312.284,1407.396,1296.522,1427.094z"/>
	<path fill="#FFFFFF" d="M1329.36,1511.627c-33.459-26.77-48.131-64.143-33.191-84.018l-0.543,0.616
		c-15.763,19.697-1.12,57.607,32.702,84.68c33.839,27.064,74.042,33.034,89.801,13.334l0.489-0.653
		C1402.504,1544.521,1362.819,1538.401,1329.36,1511.627L1329.36,1511.627z"/>
	<path fill="#9292F1" d="M1508.48,1428.384l-137.209-109.776l-16.492,20.614l-64.76,80.929
		c-17.654,22.062-1.246,64.525,36.641,94.841c37.884,30.317,82.914,37.005,100.565,14.944l0.418-0.568l0.024,0.016L1508.48,1428.384
		L1508.48,1428.384z"/>
	<path fill="#B7C4EE" d="M1371.052,1318.889c-17.651,22.059-1.253,64.523,36.641,94.841c37.885,30.307,82.907,37.002,100.567,14.93
		c17.651-22.06,1.243-64.522-36.641-94.83c-37.887-30.317-82.917-37.005-100.567-14.944V1318.889z"/>
	<path fill="#FFFFFF" d="M1407.82,1413.562c-37.476-29.986-53.915-71.84-37.179-94.099l-0.605,0.691
		c-17.65,22.065-1.253,64.526,36.642,94.844c37.884,30.316,82.907,37.002,100.567,14.941l0.536-0.742
		C1489.737,1450.403,1445.296,1443.548,1407.82,1413.562L1407.82,1413.562z"/>
	<path fill="#2C2982" d="M1519.627,1399.386l-122.503-98.016l-14.721,18.407l-0.395,0.49c-15.768,19.697-1.118,57.608,32.711,84.678
		c33.83,27.064,74.031,33.044,89.791,13.344l0.371-0.514l0.022,0.016L1519.627,1399.386z"/>
	<path fill="#FCDE11" d="M1396.913,1301.62c-15.76,19.7-1.109,57.61,32.714,84.68c33.827,27.067,74.03,33.042,89.8,13.337
		c15.76-19.7,1.109-57.607-32.719-84.672C1452.876,1287.892,1412.675,1281.923,1396.913,1301.62L1396.913,1301.62z"/>
	<path fill="#FFFFFF" d="M1429.752,1386.155c-33.459-26.773-48.133-64.146-33.198-84.021l-0.537,0.616
		c-15.76,19.697-1.118,57.609,32.711,84.68c33.829,27.064,74.031,33.035,89.791,13.335l0.49-0.654
		C1502.894,1419.047,1463.212,1412.926,1429.752,1386.155z"/>
	<path fill="#9292F1" d="M1560.565,1383.951l-157.354-125.899l-18.913,23.645l-0.505,0.63c-20.25,25.3-1.434,74,42.012,108.757
		c43.456,34.768,95.093,42.442,115.337,17.14l0.481-0.652l0.022,0.022L1560.565,1383.951z"/>
	<path fill="#B7C4EE" d="M1402.959,1258.362c-20.243,25.307-1.434,74.001,42.022,108.769
		c43.447,34.767,95.086,42.437,115.337,17.132c20.24-25.301,1.431-73.992-42.023-108.76
		C1474.84,1240.735,1423.21,1233.063,1402.959,1258.362z"/>
	<path fill="#FFFFFF" d="M1445.114,1366.952c-42.974-34.385-61.823-82.387-42.637-107.915l-0.693,0.788
		c-20.243,25.307-1.434,74,42.021,108.766c43.454,34.77,95.087,42.44,115.336,17.132l0.613-0.842
		C1539.064,1409.195,1488.096,1401.341,1445.114,1366.952L1445.114,1366.952z"/>
</g>
</svg>
